<svg width="207" height="62" viewBox="0 0 207 62" fill="none" xmlns="http://www.w3.org/2000/svg">
<g clip-path="url(#clip0)">
<mask id="mask0" mask-type="alpha" maskUnits="userSpaceOnUse" x="0" y="11" width="203" height="45">
<path d="M10.52 12.08C12.8933 12.08 14.7733 12.2933 16.16 12.72C17.5467 13.12 18.5467 13.84 19.16 14.88C19.7733 15.92 20.08 17.3867 20.08 19.28C20.08 21.2533 19.7067 22.76 18.96 23.8C18.24 24.8133 17.04 25.4 15.36 25.56V25.76C17.44 25.9467 18.88 26.6667 19.68 27.92C20.5067 29.1733 20.92 30.9067 20.92 33.12C20.92 35.0133 20.6 36.48 19.96 37.52C19.3467 38.56 18.36 39.2933 17 39.72C15.6667 40.12 13.92 40.32 11.76 40.32C9.52 40.32 7.57333 40.2267 5.92 40.04C4.26667 39.8533 2.68 39.5467 1.16 39.12L1.6 35C3.12 35.24 4.62667 35.4267 6.12 35.56C7.64 35.6667 9.14667 35.72 10.64 35.72C12.1867 35.72 13.24 35.48 13.8 35C14.3867 34.4933 14.68 33.4667 14.68 31.92C14.68 30.2933 14.3733 29.2 13.76 28.64C13.1733 28.08 12.08 27.8 10.48 27.8L5.12 27.72V23.64L10.44 23.6C11.8 23.6 12.7333 23.3733 13.24 22.92C13.7733 22.44 14.04 21.4933 14.04 20.08C14.04 18.6933 13.76 17.7733 13.2 17.32C12.64 16.8667 11.6133 16.64 10.12 16.64C8.62667 16.64 7.24 16.6933 5.96 16.8C4.70667 16.9067 3.44 17.0267 2.16 17.16L1.68 12.84C3.01333 12.5733 4.36 12.3867 5.72 12.28C7.08 12.1467 8.68 12.08 10.52 12.08ZM38.6944 12.4C39.201 12.4 39.641 12.5467 40.0144 12.84C40.4144 13.1333 40.681 13.52 40.8144 14L48.8144 40H42.5744L40.5344 32.68H31.0144L29.0144 40H22.7744L30.7744 14C30.9077 13.52 31.161 13.1333 31.5344 12.84C31.9344 12.5467 32.3877 12.4 32.8944 12.4H38.6944ZM34.6544 19.68L32.2944 28.12H39.2544L36.9344 19.68C36.801 19.2533 36.681 18.8133 36.5744 18.36C36.4944 17.88 36.4144 17.4267 36.3344 17H35.2544C35.1744 17.4267 35.081 17.88 34.9744 18.36C34.8677 18.8133 34.761 19.2533 34.6544 19.68ZM62.1481 12.08C64.5481 12.08 66.4548 12.2933 67.8681 12.72C69.3081 13.12 70.3481 13.84 70.9881 14.88C71.6281 15.92 71.9481 17.3867 71.9481 19.28C71.9481 21.2533 71.5615 22.76 70.7881 23.8C70.0415 24.8133 68.8015 25.4 67.0681 25.56V25.76C69.2015 25.9467 70.6948 26.6667 71.5481 27.92C72.4015 29.1733 72.8281 30.9067 72.8281 33.12C72.8281 35.0133 72.4948 36.48 71.8281 37.52C71.1881 38.56 70.1748 39.2933 68.7881 39.72C67.4015 40.12 65.6148 40.32 63.4281 40.32C61.6415 40.32 60.0815 40.3067 58.7481 40.28C57.4415 40.28 56.2281 40.2533 55.1081 40.2C54.0148 40.1467 52.8815 40.08 51.7081 40V12.4C52.7481 12.2933 53.7615 12.2267 54.7481 12.2C55.7615 12.1467 56.8548 12.12 58.0281 12.12C59.2015 12.0933 60.5748 12.08 62.1481 12.08ZM61.8281 16.52C61.0281 16.52 60.2815 16.52 59.5881 16.52C58.8948 16.52 58.2548 16.52 57.6681 16.52V23.76H62.1481C63.6415 23.76 64.6681 23.52 65.2281 23.04C65.8148 22.56 66.1081 21.5733 66.1081 20.08C66.1081 18.6133 65.8015 17.6533 65.1881 17.2C64.5748 16.7467 63.4548 16.52 61.8281 16.52ZM62.2281 27.64H57.6681V35.88C59.0548 35.88 60.6148 35.88 62.3481 35.88C63.4681 35.88 64.3481 35.7733 64.9881 35.56C65.6281 35.3467 66.0681 34.96 66.3081 34.4C66.5748 33.84 66.7081 33.0133 66.7081 31.92C66.7081 30.8 66.5748 29.9333 66.3081 29.32C66.0415 28.7067 65.5748 28.28 64.9081 28.04C64.2681 27.7733 63.3748 27.64 62.2281 27.64ZM88.2522 11.84C90.4389 11.84 92.2789 12.08 93.7722 12.56C95.2922 13.0133 96.5189 13.7867 97.4522 14.88C98.3855 15.9733 99.0655 17.44 99.4922 19.28C99.9189 21.12 100.132 23.4267 100.132 26.2C100.132 28.9733 99.9189 31.28 99.4922 33.12C99.0655 34.96 98.3855 36.4267 97.4522 37.52C96.5189 38.6133 95.2922 39.3867 93.7722 39.84C92.2789 40.2933 90.4389 40.52 88.2522 40.52C86.0655 40.52 84.2122 40.2933 82.6922 39.84C81.1722 39.3867 79.9455 38.6133 79.0122 37.52C78.0789 36.4267 77.3989 34.96 76.9722 33.12C76.5722 31.28 76.3722 28.9733 76.3722 26.2C76.3722 23.4267 76.5722 21.12 76.9722 19.28C77.3989 17.44 78.0789 15.9733 79.0122 14.88C79.9455 13.7867 81.1722 13.0133 82.6922 12.56C84.2122 12.08 86.0655 11.84 88.2522 11.84ZM88.2522 16.64C86.8389 16.64 85.7322 16.92 84.9322 17.48C84.1589 18.04 83.5989 19.0133 83.2522 20.4C82.9322 21.7867 82.7722 23.72 82.7722 26.2C82.7722 28.68 82.9322 30.6133 83.2522 32C83.5989 33.3867 84.1589 34.36 84.9322 34.92C85.7322 35.4533 86.8389 35.72 88.2522 35.72C89.6389 35.72 90.7322 35.4533 91.5322 34.92C92.3322 34.36 92.8922 33.3867 93.2122 32C93.5322 30.6133 93.6922 28.68 93.6922 26.2C93.6922 23.72 93.5322 21.7867 93.2122 20.4C92.8922 19.0133 92.3322 18.04 91.5322 17.48C90.7322 16.92 89.6389 16.64 88.2522 16.64ZM129.773 35.72V46.04H125.413L124.973 40H106.613L106.173 46.04H101.813V35.72H104.733C105.853 32.8933 106.679 30 107.213 27.04C107.746 24.0533 108.133 21.0533 108.373 18.04C108.479 16.36 109.079 15 110.173 13.96C111.293 12.92 112.759 12.4 114.573 12.4H126.173V35.72H129.773ZM114.053 19.04C113.839 21.5733 113.586 23.8133 113.293 25.76C112.999 27.7067 112.613 29.48 112.133 31.08C111.679 32.68 111.093 34.2267 110.373 35.72H120.093V16.68H116.413C115.639 16.68 115.066 16.8667 114.693 17.24C114.319 17.6133 114.106 18.2133 114.053 19.04ZM5.1004 48.342V54H3.8458V49.2194H1.845V54H0.5904V48.342H5.1004ZM8.45695 48.26C8.98175 48.26 9.39449 48.3147 9.69515 48.424C9.99582 48.5333 10.209 48.7219 10.3348 48.9898C10.466 49.2577 10.5316 49.6321 10.5316 50.1132C10.5316 50.5943 10.4687 50.9687 10.343 51.2366C10.2227 51.5045 10.0204 51.6903 9.73615 51.7942C9.45735 51.8981 9.08289 51.9527 8.61275 51.9582C8.42689 51.9527 8.24102 51.9445 8.05515 51.9336C7.87475 51.9227 7.69982 51.909 7.53035 51.8926V54H6.28395V48.342C6.50809 48.3201 6.72129 48.3037 6.92355 48.2928C7.12582 48.2819 7.34449 48.2737 7.57955 48.2682C7.82009 48.2627 8.11255 48.26 8.45695 48.26ZM8.42415 49.203C8.26015 49.203 8.10162 49.203 7.94855 49.203C7.80095 49.203 7.66155 49.203 7.53035 49.203V51.0152H8.42415C8.75215 51.0152 8.97629 50.9551 9.09655 50.8348C9.21682 50.7145 9.27695 50.474 9.27695 50.1132C9.27695 49.7524 9.21682 49.5119 9.09655 49.3916C8.97629 49.2659 8.75215 49.203 8.42415 49.203ZM13.5993 48.2272C14.0476 48.2272 14.4248 48.2764 14.7309 48.3748C15.0425 48.4677 15.294 48.6263 15.4853 48.8504C15.6766 49.0745 15.816 49.3752 15.9035 49.7524C15.991 50.1296 16.0347 50.6025 16.0347 51.171C16.0347 51.7395 15.991 52.2124 15.9035 52.5896C15.816 52.9668 15.6766 53.2675 15.4853 53.4916C15.294 53.7157 15.0425 53.8743 14.7309 53.9672C14.4248 54.0601 14.0476 54.1066 13.5993 54.1066C13.151 54.1066 12.7711 54.0601 12.4595 53.9672C12.1479 53.8743 11.8964 53.7157 11.7051 53.4916C11.5138 53.2675 11.3744 52.9668 11.2869 52.5896C11.2049 52.2124 11.1639 51.7395 11.1639 51.171C11.1639 50.6025 11.2049 50.1296 11.2869 49.7524C11.3744 49.3752 11.5138 49.0745 11.7051 48.8504C11.8964 48.6263 12.1479 48.4677 12.4595 48.3748C12.7711 48.2764 13.151 48.2272 13.5993 48.2272ZM13.5993 49.2112C13.3096 49.2112 13.0827 49.2686 12.9187 49.3834C12.7602 49.4982 12.6454 49.6977 12.5743 49.982C12.5087 50.2663 12.4759 50.6626 12.4759 51.171C12.4759 51.6794 12.5087 52.0757 12.5743 52.36C12.6454 52.6443 12.7602 52.8438 12.9187 52.9586C13.0827 53.0679 13.3096 53.1226 13.5993 53.1226C13.8836 53.1226 14.1077 53.0679 14.2717 52.9586C14.4357 52.8438 14.5505 52.6443 14.6161 52.36C14.6817 52.0757 14.7145 51.6794 14.7145 51.171C14.7145 50.6626 14.6817 50.2663 14.6161 49.982C14.5505 49.6977 14.4357 49.4982 14.2717 49.3834C14.1077 49.2686 13.8836 49.2112 13.5993 49.2112ZM21.6802 48.342V54H20.483V50.638C20.483 50.5123 20.4885 50.3865 20.4994 50.2608C20.5104 50.1296 20.5268 50.0011 20.5486 49.8754H20.4994C20.412 50.1378 20.3054 50.3838 20.1796 50.6134L18.2362 54H17.0144V48.342H18.2116V51.6384C18.2116 51.7641 18.2034 51.8953 18.187 52.032C18.1761 52.1687 18.1624 52.3026 18.146 52.4338H18.187C18.28 52.1769 18.3948 51.9281 18.5314 51.6876L20.4584 48.342H21.6802ZM24.4263 48.2764C24.9129 48.2764 25.2983 48.3201 25.5825 48.4076C25.8668 48.4896 26.0718 48.6372 26.1975 48.8504C26.3233 49.0636 26.3861 49.3643 26.3861 49.7524C26.3861 50.1569 26.3096 50.4658 26.1565 50.679C26.0089 50.8867 25.7629 51.007 25.4185 51.0398V51.0808C25.8449 51.1191 26.1401 51.2667 26.3041 51.5236C26.4736 51.7805 26.5583 52.1359 26.5583 52.5896C26.5583 52.9777 26.4927 53.2784 26.3615 53.4916C26.2358 53.7048 26.0335 53.8551 25.7547 53.9426C25.4814 54.0246 25.1233 54.0656 24.6805 54.0656C24.2213 54.0656 23.8223 54.0465 23.4833 54.0082C23.1444 53.9699 22.8191 53.9071 22.5075 53.8196L22.5977 52.975C22.9093 53.0242 23.2182 53.0625 23.5243 53.0898C23.8359 53.1117 24.1448 53.1226 24.4509 53.1226C24.768 53.1226 24.9839 53.0734 25.0987 52.975C25.219 52.8711 25.2791 52.6607 25.2791 52.3436C25.2791 52.0101 25.2163 51.786 25.0905 51.6712C24.9703 51.5564 24.7461 51.499 24.4181 51.499L23.3193 51.4826V50.6462L24.4099 50.638C24.6887 50.638 24.8801 50.5915 24.9839 50.4986C25.0933 50.4002 25.1479 50.2061 25.1479 49.9164C25.1479 49.6321 25.0905 49.4435 24.9757 49.3506C24.8609 49.2577 24.6505 49.2112 24.3443 49.2112C24.0382 49.2112 23.7539 49.2221 23.4915 49.244C23.2346 49.2659 22.9749 49.2905 22.7125 49.3178L22.6141 48.4322C22.8875 48.3775 23.1635 48.3393 23.4423 48.3174C23.7211 48.2901 24.0491 48.2764 24.4263 48.2764ZM29.6609 48.2764C30.1529 48.2764 30.5437 48.3201 30.8335 48.4076C31.1287 48.4896 31.3419 48.6372 31.4731 48.8504C31.6043 49.0636 31.6699 49.3643 31.6699 49.7524C31.6699 50.1569 31.5906 50.4658 31.4321 50.679C31.279 50.8867 31.0248 51.007 30.6695 51.0398V51.0808C31.1068 51.1191 31.4129 51.2667 31.5879 51.5236C31.7628 51.7805 31.8503 52.1359 31.8503 52.5896C31.8503 52.9777 31.7819 53.2784 31.6453 53.4916C31.5141 53.7048 31.3063 53.8551 31.0221 53.9426C30.7378 54.0246 30.3715 54.0656 29.9233 54.0656C29.557 54.0656 29.2372 54.0629 28.9639 54.0574C28.696 54.0574 28.4473 54.0519 28.2177 54.041C27.9935 54.0301 27.7612 54.0164 27.5207 54V48.342C27.7339 48.3201 27.9416 48.3065 28.1439 48.301C28.3516 48.2901 28.5757 48.2846 28.8163 48.2846C29.0568 48.2791 29.3383 48.2764 29.6609 48.2764ZM29.5953 49.1866C29.4313 49.1866 29.2782 49.1866 29.1361 49.1866C28.9939 49.1866 28.8627 49.1866 28.7425 49.1866V50.6708H29.6609C29.967 50.6708 30.1775 50.6216 30.2923 50.5232C30.4125 50.4248 30.4727 50.2225 30.4727 49.9164C30.4727 49.6157 30.4098 49.4189 30.2841 49.326C30.1583 49.2331 29.9287 49.1866 29.5953 49.1866ZM29.6773 51.4662H28.7425V53.1554C29.0267 53.1554 29.3465 53.1554 29.7019 53.1554C29.9315 53.1554 30.1119 53.1335 30.2431 53.0898C30.3743 53.0461 30.4645 52.9668 30.5137 52.852C30.5683 52.7372 30.5957 52.5677 30.5957 52.3436C30.5957 52.114 30.5683 51.9363 30.5137 51.8106C30.459 51.6849 30.3633 51.5974 30.2267 51.5482C30.0955 51.4935 29.9123 51.4662 29.6773 51.4662ZM35.0122 48.2272C35.4605 48.2272 35.8377 48.2764 36.1438 48.3748C36.4554 48.4677 36.7069 48.6263 36.8982 48.8504C37.0895 49.0745 37.2289 49.3752 37.3164 49.7524C37.4039 50.1296 37.4476 50.6025 37.4476 51.171C37.4476 51.7395 37.4039 52.2124 37.3164 52.5896C37.2289 52.9668 37.0895 53.2675 36.8982 53.4916C36.7069 53.7157 36.4554 53.8743 36.1438 53.9672C35.8377 54.0601 35.4605 54.1066 35.0122 54.1066C34.5639 54.1066 34.184 54.0601 33.8724 53.9672C33.5608 53.8743 33.3093 53.7157 33.118 53.4916C32.9267 53.2675 32.7873 52.9668 32.6998 52.5896C32.6178 52.2124 32.5768 51.7395 32.5768 51.171C32.5768 50.6025 32.6178 50.1296 32.6998 49.7524C32.7873 49.3752 32.9267 49.0745 33.118 48.8504C33.3093 48.6263 33.5608 48.4677 33.8724 48.3748C34.184 48.2764 34.5639 48.2272 35.0122 48.2272ZM35.0122 49.2112C34.7225 49.2112 34.4956 49.2686 34.3316 49.3834C34.1731 49.4982 34.0583 49.6977 33.9872 49.982C33.9216 50.2663 33.8888 50.6626 33.8888 51.171C33.8888 51.6794 33.9216 52.0757 33.9872 52.36C34.0583 52.6443 34.1731 52.8438 34.3316 52.9586C34.4956 53.0679 34.7225 53.1226 35.0122 53.1226C35.2965 53.1226 35.5206 53.0679 35.6846 52.9586C35.8486 52.8438 35.9634 52.6443 36.029 52.36C36.0946 52.0757 36.1274 51.6794 36.1274 51.171C36.1274 50.6626 36.0946 50.2663 36.029 49.982C35.9634 49.6977 35.8486 49.4982 35.6846 49.3834C35.5206 49.2686 35.2965 49.2112 35.0122 49.2112ZM43.0931 48.342V54H41.8959V50.638C41.8959 50.5123 41.9014 50.3865 41.9123 50.2608C41.9232 50.1296 41.9396 50.0011 41.9615 49.8754H41.9123C41.8248 50.1378 41.7182 50.3838 41.5925 50.6134L39.6491 54H38.4273V48.342H39.6245V51.6384C39.6245 51.7641 39.6163 51.8953 39.5999 52.032C39.589 52.1687 39.5753 52.3026 39.5589 52.4338H39.5999C39.6928 52.1769 39.8076 51.9281 39.9443 51.6876L41.8713 48.342H43.0931ZM48.4796 48.342V49.326H46.774V54H45.5276V49.326H43.822V48.342H48.4796ZM50.362 48.3174C50.8048 48.3174 51.264 48.3229 51.7396 48.3338C52.2152 48.3393 52.6498 48.3611 53.0434 48.3994L52.986 49.3096H50.813C50.5397 49.3096 50.403 49.449 50.403 49.7278V50.6134H52.6744V51.499H50.403V52.6142C50.403 52.893 50.5397 53.0324 50.813 53.0324H52.986L53.0434 53.9426C52.6498 53.9809 52.2152 54.0027 51.7396 54.0082C51.264 54.0137 50.8048 54.0164 50.362 54.0164C49.9958 54.0164 49.7006 53.9153 49.4764 53.713C49.2578 53.5053 49.1484 53.2292 49.1484 52.8848V49.4572C49.1484 49.1128 49.2605 48.8367 49.4846 48.629C49.7088 48.4213 50.0012 48.3174 50.362 48.3174ZM58.3579 48.342V54H57.1033V49.2194H56.3653C56.0427 49.2194 55.8705 49.3779 55.8487 49.695C55.7831 50.4166 55.7175 51.0261 55.6519 51.5236C55.5917 52.0211 55.4933 52.4447 55.3567 52.7946C55.1817 53.2921 54.933 53.6337 54.6105 53.8196C54.2934 54.0055 53.9189 54.0738 53.4871 54.0246L53.3887 53.057C53.5691 53.0187 53.7276 52.9613 53.8643 52.8848C54.0064 52.8028 54.1185 52.6607 54.2005 52.4584C54.277 52.2616 54.3426 52.0402 54.3973 51.7942C54.4519 51.5482 54.4984 51.2475 54.5367 50.8922C54.5749 50.5314 54.6132 50.0886 54.6515 49.5638C54.7116 48.7493 55.1489 48.342 55.9635 48.342H58.3579ZM61.6271 50.4494C62.1464 50.4494 62.5564 50.5068 62.8571 50.6216C63.1578 50.7309 63.3737 50.9195 63.5049 51.1874C63.6361 51.4498 63.7017 51.8079 63.7017 52.2616C63.7017 52.7317 63.6361 53.098 63.5049 53.3604C63.3792 53.6228 63.1796 53.8059 62.9063 53.9098C62.633 54.0137 62.2776 54.0656 61.8403 54.0656C61.4904 54.0656 61.187 54.0629 60.9301 54.0574C60.6786 54.0574 60.4436 54.0519 60.2249 54.041C60.0117 54.0301 59.7903 54.0164 59.5607 54H59.5279V48.342H60.7825V50.4494H61.6271ZM61.6271 51.294H60.7825V53.1308C61.034 53.1308 61.3155 53.1308 61.6271 53.1308C61.8458 53.1308 62.0152 53.1089 62.1355 53.0652C62.2558 53.016 62.3378 52.9258 62.3815 52.7946C62.4252 52.6634 62.4471 52.4748 62.4471 52.2288C62.4471 51.9937 62.4252 51.8079 62.3815 51.6712C62.3378 51.5345 62.2558 51.4389 62.1355 51.3842C62.0207 51.3241 61.8512 51.294 61.6271 51.294ZM68.5319 48.2436C68.7943 48.2436 69.0212 48.2518 69.2125 48.2682C69.4039 48.2791 69.5788 48.2983 69.7373 48.3256C69.8959 48.3529 70.0599 48.3885 70.2293 48.4322L70.1309 49.3588C69.9505 49.3479 69.7838 49.3397 69.6307 49.3342C69.4777 49.3287 69.3137 49.3233 69.1387 49.3178C68.9693 49.3123 68.767 49.3096 68.5319 49.3096C68.2531 49.3096 68.0345 49.367 67.8759 49.4818C67.7174 49.5911 67.6053 49.7797 67.5397 50.0476C67.4796 50.3155 67.4495 50.6899 67.4495 51.171C67.4495 51.6466 67.4796 52.0211 67.5397 52.2944C67.6053 52.5623 67.7174 52.7509 67.8759 52.8602C68.0345 52.9695 68.2531 53.0242 68.5319 53.0242C68.9091 53.0242 69.2262 53.0215 69.4831 53.016C69.7401 53.0051 69.9943 52.9832 70.2457 52.9504L70.3523 53.8688C70.0899 53.9508 69.8221 54.0082 69.5487 54.041C69.2754 54.0793 68.9365 54.0984 68.5319 54.0984C67.947 54.0984 67.4769 54.0055 67.1215 53.8196C66.7717 53.6283 66.5202 53.3194 66.3671 52.893C66.2141 52.4666 66.1375 51.8926 66.1375 51.171C66.1375 50.4494 66.2141 49.8754 66.3671 49.449C66.5202 49.0226 66.7717 48.7165 67.1215 48.5306C67.4769 48.3393 67.947 48.2436 68.5319 48.2436ZM73.3136 48.2272C73.7618 48.2272 74.139 48.2764 74.4452 48.3748C74.7568 48.4677 75.0082 48.6263 75.1996 48.8504C75.3909 49.0745 75.5303 49.3752 75.6178 49.7524C75.7052 50.1296 75.749 50.6025 75.749 51.171C75.749 51.7395 75.7052 52.2124 75.6178 52.5896C75.5303 52.9668 75.3909 53.2675 75.1996 53.4916C75.0082 53.7157 74.7568 53.8743 74.4452 53.9672C74.139 54.0601 73.7618 54.1066 73.3136 54.1066C72.8653 54.1066 72.4854 54.0601 72.1738 53.9672C71.8622 53.8743 71.6107 53.7157 71.4194 53.4916C71.228 53.2675 71.0886 52.9668 71.0012 52.5896C70.9192 52.2124 70.8782 51.7395 70.8782 51.171C70.8782 50.6025 70.9192 50.1296 71.0012 49.7524C71.0886 49.3752 71.228 49.0745 71.4194 48.8504C71.6107 48.6263 71.8622 48.4677 72.1738 48.3748C72.4854 48.2764 72.8653 48.2272 73.3136 48.2272ZM73.3136 49.2112C73.0238 49.2112 72.797 49.2686 72.633 49.3834C72.4744 49.4982 72.3596 49.6977 72.2886 49.982C72.223 50.2663 72.1902 50.6626 72.1902 51.171C72.1902 51.6794 72.223 52.0757 72.2886 52.36C72.3596 52.6443 72.4744 52.8438 72.633 52.9586C72.797 53.0679 73.0238 53.1226 73.3136 53.1226C73.5978 53.1226 73.822 53.0679 73.986 52.9586C74.15 52.8438 74.2648 52.6443 74.3304 52.36C74.396 52.0757 74.4288 51.6794 74.4288 51.171C74.4288 50.6626 74.396 50.2663 74.3304 49.982C74.2648 49.6977 74.15 49.4982 73.986 49.3834C73.822 49.2686 73.5978 49.2112 73.3136 49.2112ZM78.8689 48.2764C79.3609 48.2764 79.7517 48.3201 80.0415 48.4076C80.3367 48.4896 80.5499 48.6372 80.6811 48.8504C80.8123 49.0636 80.8779 49.3643 80.8779 49.7524C80.8779 50.1569 80.7986 50.4658 80.6401 50.679C80.487 50.8867 80.2328 51.007 79.8775 51.0398V51.0808C80.3148 51.1191 80.6209 51.2667 80.7959 51.5236C80.9708 51.7805 81.0583 52.1359 81.0583 52.5896C81.0583 52.9777 80.9899 53.2784 80.8533 53.4916C80.7221 53.7048 80.5143 53.8551 80.2301 53.9426C79.9458 54.0246 79.5795 54.0656 79.1313 54.0656C78.765 54.0656 78.4452 54.0629 78.1719 54.0574C77.904 54.0574 77.6553 54.0519 77.4257 54.041C77.2015 54.0301 76.9692 54.0164 76.7287 54V48.342C76.9419 48.3201 77.1496 48.3065 77.3519 48.301C77.5596 48.2901 77.7837 48.2846 78.0243 48.2846C78.2648 48.2791 78.5463 48.2764 78.8689 48.2764ZM78.8033 49.1866C78.6393 49.1866 78.4862 49.1866 78.3441 49.1866C78.2019 49.1866 78.0707 49.1866 77.9505 49.1866V50.6708H78.8689C79.175 50.6708 79.3855 50.6216 79.5003 50.5232C79.6205 50.4248 79.6807 50.2225 79.6807 49.9164C79.6807 49.6157 79.6178 49.4189 79.4921 49.326C79.3663 49.2331 79.1367 49.1866 78.8033 49.1866ZM78.8853 51.4662H77.9505V53.1554C78.2347 53.1554 78.5545 53.1554 78.9099 53.1554C79.1395 53.1554 79.3199 53.1335 79.4511 53.0898C79.5823 53.0461 79.6725 52.9668 79.7217 52.852C79.7763 52.7372 79.8037 52.5677 79.8037 52.3436C79.8037 52.114 79.7763 51.9363 79.7217 51.8106C79.667 51.6849 79.5713 51.5974 79.4347 51.5482C79.3035 51.4935 79.1203 51.4662 78.8853 51.4662ZM84.1628 48.26C84.6876 48.26 85.1003 48.3147 85.401 48.424C85.7017 48.5333 85.9149 48.7219 86.0406 48.9898C86.1718 49.2577 86.2374 49.6321 86.2374 50.1132C86.2374 50.5943 86.1745 50.9687 86.0488 51.2366C85.9285 51.5045 85.7263 51.6903 85.442 51.7942C85.1632 51.8981 84.7887 51.9527 84.3186 51.9582C84.1327 51.9527 83.9469 51.9445 83.761 51.9336C83.5806 51.9227 83.4057 51.909 83.2362 51.8926V54H81.9898V48.342C82.2139 48.3201 82.4271 48.3037 82.6294 48.2928C82.8317 48.2819 83.0503 48.2737 83.2854 48.2682C83.5259 48.2627 83.8184 48.26 84.1628 48.26ZM84.13 49.203C83.966 49.203 83.8075 49.203 83.6544 49.203C83.5068 49.203 83.3674 49.203 83.2362 49.203V51.0152H84.13C84.458 51.0152 84.6821 50.9551 84.8024 50.8348C84.9227 50.7145 84.9828 50.474 84.9828 50.1132C84.9828 49.7524 84.9227 49.5119 84.8024 49.3916C84.6821 49.2659 84.458 49.203 84.13 49.203ZM88.231 48.3174C88.6738 48.3174 89.133 48.3229 89.6086 48.3338C90.0842 48.3393 90.5188 48.3611 90.9124 48.3994L90.855 49.3096H88.682C88.4086 49.3096 88.272 49.449 88.272 49.7278V50.6134H90.5434V51.499H88.272V52.6142C88.272 52.893 88.4086 53.0324 88.682 53.0324H90.855L90.9124 53.9426C90.5188 53.9809 90.0842 54.0027 89.6086 54.0082C89.133 54.0137 88.6738 54.0164 88.231 54.0164C87.8647 54.0164 87.5695 53.9153 87.3454 53.713C87.1267 53.5053 87.0174 53.2292 87.0174 52.8848V49.4572C87.0174 49.1128 87.1294 48.8367 87.3536 48.629C87.5777 48.4213 87.8702 48.3174 88.231 48.3174ZM97.6126 48.342C97.9078 48.342 98.0609 48.4951 98.0718 48.8012L98.285 54H97.1288L96.9402 49.3014H96.7926L95.8824 52.8356C95.8277 53.098 95.6637 53.2292 95.3904 53.2292H94.6032C94.3244 53.2292 94.1577 53.098 94.103 52.8356L93.1846 49.3014H93.0452L92.873 54H91.7168L91.9218 48.8012C91.9327 48.4951 92.0885 48.342 92.3892 48.342H93.5618C93.8297 48.342 93.9937 48.4732 94.0538 48.7356L94.7836 51.5892C94.8164 51.7204 94.8437 51.8543 94.8656 51.991C94.8875 52.1222 94.9121 52.2561 94.9394 52.3928H95.046C95.0733 52.2561 95.0979 52.1222 95.1198 51.991C95.1417 51.8543 95.169 51.7177 95.2018 51.581L95.9234 48.7356C95.9781 48.4732 96.1448 48.342 96.4236 48.342H97.6126ZM100.507 48.3174C100.95 48.3174 101.409 48.3229 101.885 48.3338C102.36 48.3393 102.795 48.3611 103.188 48.3994L103.131 49.3096H100.958C100.685 49.3096 100.548 49.449 100.548 49.7278V50.6134H102.819V51.499H100.548V52.6142C100.548 52.893 100.685 53.0324 100.958 53.0324H103.131L103.188 53.9426C102.795 53.9809 102.36 54.0027 101.885 54.0082C101.409 54.0137 100.95 54.0164 100.507 54.0164C100.141 54.0164 99.8455 53.9153 99.6214 53.713C99.4027 53.5053 99.2934 53.2292 99.2934 52.8848V49.4572C99.2934 49.1128 99.4054 48.8367 99.6296 48.629C99.8537 48.4213 100.146 48.3174 100.507 48.3174ZM105.354 48.342V50.515H107.371V48.342H108.618V54H107.371V51.4498H105.354V54H104.099V48.342H105.354ZM111.056 48.342V50.515H113.073V48.342H114.319V54H113.073V51.4498H111.056V54H109.801V48.342H111.056ZM117.585 50.4494C118.105 50.4494 118.512 50.5068 118.807 50.6216C119.108 50.7309 119.321 50.9195 119.447 51.1874C119.578 51.4498 119.644 51.8079 119.644 52.2616C119.644 52.7317 119.581 53.098 119.455 53.3604C119.329 53.6228 119.13 53.8059 118.856 53.9098C118.583 54.0137 118.23 54.0656 117.799 54.0656C117.454 54.0656 117.153 54.0629 116.897 54.0574C116.645 54.0574 116.413 54.0519 116.2 54.041C115.986 54.0301 115.765 54.0164 115.535 54H115.503V48.342H116.757V50.4494H117.585ZM121.71 48.342V54H120.455V48.342H121.71ZM117.585 51.294H116.757V53.1308C117.009 53.1308 117.285 53.1308 117.585 53.1308C117.804 53.1308 117.971 53.1089 118.086 53.0652C118.2 53.016 118.28 52.9258 118.323 52.7946C118.367 52.6634 118.389 52.4748 118.389 52.2288C118.389 51.9937 118.367 51.8079 118.323 51.6712C118.285 51.5345 118.209 51.4389 118.094 51.3842C117.979 51.3241 117.809 51.294 117.585 51.294ZM123.771 48.342L124.886 50.6954H125.009L126.133 48.342H127.396L126.01 51.089L127.51 54H126.231L125.001 51.4662H124.895L123.665 54H122.394L123.886 51.089L122.5 48.342H123.771ZM132.097 48.2764C132.589 48.2764 132.98 48.3201 133.269 48.4076C133.565 48.4896 133.778 48.6372 133.909 48.8504C134.04 49.0636 134.106 49.3643 134.106 49.7524C134.106 50.1569 134.027 50.4658 133.868 50.679C133.715 50.8867 133.461 51.007 133.105 51.0398V51.0808C133.543 51.1191 133.849 51.2667 134.024 51.5236C134.199 51.7805 134.286 52.1359 134.286 52.5896C134.286 52.9777 134.218 53.2784 134.081 53.4916C133.95 53.7048 133.742 53.8551 133.458 53.9426C133.174 54.0246 132.807 54.0656 132.359 54.0656C131.993 54.0656 131.673 54.0629 131.4 54.0574C131.132 54.0574 130.883 54.0519 130.654 54.041C130.429 54.0301 130.197 54.0164 129.957 54V48.342C130.17 48.3201 130.378 48.3065 130.58 48.301C130.788 48.2901 131.012 48.2846 131.252 48.2846C131.493 48.2791 131.774 48.2764 132.097 48.2764ZM132.031 49.1866C131.867 49.1866 131.714 49.1866 131.572 49.1866C131.43 49.1866 131.299 49.1866 131.178 49.1866V50.6708H132.097C132.403 50.6708 132.613 50.6216 132.728 50.5232C132.848 50.4248 132.909 50.2225 132.909 49.9164C132.909 49.6157 132.846 49.4189 132.72 49.326C132.594 49.2331 132.365 49.1866 132.031 49.1866ZM132.113 51.4662H131.178V53.1554C131.463 53.1554 131.782 53.1554 132.138 53.1554C132.367 53.1554 132.548 53.1335 132.679 53.0898C132.81 53.0461 132.9 52.9668 132.95 52.852C133.004 52.7372 133.032 52.5677 133.032 52.3436C133.032 52.114 133.004 51.9363 132.95 51.8106C132.895 51.6849 132.799 51.5974 132.663 51.5482C132.531 51.4935 132.348 51.4662 132.113 51.4662ZM136.095 48.342L137.21 50.6954H137.333L138.457 48.342H139.72L138.334 51.089L139.834 54H138.555L137.325 51.4662H137.219L135.989 54H134.718L136.21 51.089L134.824 48.342H136.095ZM142.581 48.2272C143.029 48.2272 143.407 48.2764 143.713 48.3748C144.024 48.4677 144.276 48.6263 144.467 48.8504C144.658 49.0745 144.798 49.3752 144.885 49.7524C144.973 50.1296 145.017 50.6025 145.017 51.171C145.017 51.7395 144.973 52.2124 144.885 52.5896C144.798 52.9668 144.658 53.2675 144.467 53.4916C144.276 53.7157 144.024 53.8743 143.713 53.9672C143.407 54.0601 143.029 54.1066 142.581 54.1066C142.133 54.1066 141.753 54.0601 141.441 53.9672C141.13 53.8743 140.878 53.7157 140.687 53.4916C140.496 53.2675 140.356 52.9668 140.269 52.5896C140.187 52.2124 140.146 51.7395 140.146 51.171C140.146 50.6025 140.187 50.1296 140.269 49.7524C140.356 49.3752 140.496 49.0745 140.687 48.8504C140.878 48.6263 141.13 48.4677 141.441 48.3748C141.753 48.2764 142.133 48.2272 142.581 48.2272ZM142.581 49.2112C142.291 49.2112 142.065 49.2686 141.901 49.3834C141.742 49.4982 141.627 49.6977 141.556 49.982C141.491 50.2663 141.458 50.6626 141.458 51.171C141.458 51.6794 141.491 52.0757 141.556 52.36C141.627 52.6443 141.742 52.8438 141.901 52.9586C142.065 53.0679 142.291 53.1226 142.581 53.1226C142.865 53.1226 143.09 53.0679 143.254 52.9586C143.418 52.8438 143.532 52.6443 143.598 52.36C143.664 52.0757 143.696 51.6794 143.696 51.171C143.696 50.6626 143.664 50.2663 143.598 49.982C143.532 49.6977 143.418 49.4982 143.254 49.3834C143.09 49.2686 142.865 49.2112 142.581 49.2112ZM151.093 53.1226V55.2382H150.199L150.109 54H146.345L146.255 55.2382H145.361V53.1226H145.96C146.189 52.5431 146.359 51.95 146.468 51.3432C146.577 50.7309 146.657 50.1159 146.706 49.4982C146.728 49.1538 146.851 48.875 147.075 48.6618C147.304 48.4486 147.605 48.342 147.977 48.342H150.355V53.1226H151.093ZM147.87 49.7032C147.827 50.2225 147.775 50.6817 147.714 51.0808C147.654 51.4799 147.575 51.8434 147.477 52.1714C147.384 52.4994 147.263 52.8165 147.116 53.1226H149.108V49.2194H148.354C148.196 49.2194 148.078 49.2577 148.001 49.3342C147.925 49.4107 147.881 49.5337 147.87 49.7032ZM153.121 48.342V50.515H155.138V48.342H156.384V54H155.138V51.4498H153.121V54H151.866V48.342H153.121ZM159.65 50.4494C160.17 50.4494 160.577 50.5068 160.872 50.6216C161.173 50.7309 161.386 50.9195 161.512 51.1874C161.643 51.4498 161.709 51.8079 161.709 52.2616C161.709 52.7317 161.646 53.098 161.52 53.3604C161.394 53.6228 161.195 53.8059 160.921 53.9098C160.648 54.0137 160.295 54.0656 159.864 54.0656C159.519 54.0656 159.218 54.0629 158.962 54.0574C158.71 54.0574 158.478 54.0519 158.265 54.041C158.051 54.0301 157.83 54.0164 157.6 54H157.568V48.342H158.822V50.4494H159.65ZM163.775 48.342V54H162.52V48.342H163.775ZM159.65 51.294H158.822V53.1308C159.074 53.1308 159.35 53.1308 159.65 53.1308C159.869 53.1308 160.036 53.1089 160.151 53.0652C160.265 53.016 160.345 52.9258 160.388 52.7946C160.432 52.6634 160.454 52.4748 160.454 52.2288C160.454 51.9937 160.432 51.8079 160.388 51.6712C160.35 51.5345 160.274 51.4389 160.159 51.3842C160.044 51.3241 159.874 51.294 159.65 51.294ZM165.836 48.342L166.951 50.6954H167.074L168.198 48.342H169.461L168.075 51.089L169.575 54H168.296L167.066 51.4662H166.96L165.73 54H164.459L165.951 51.089L164.565 48.342H165.836ZM177.302 53.1226V55.2382H176.409L176.318 54H172.555L172.464 55.2382H171.571V53.1226H172.169C172.399 52.5431 172.568 51.95 172.678 51.3432C172.787 50.7309 172.866 50.1159 172.915 49.4982C172.937 49.1538 173.06 48.875 173.284 48.6618C173.514 48.4486 173.815 48.342 174.186 48.342H176.564V53.1226H177.302ZM174.08 49.7032C174.036 50.2225 173.984 50.6817 173.924 51.0808C173.864 51.4799 173.785 51.8434 173.686 52.1714C173.593 52.4994 173.473 52.8165 173.325 53.1226H175.318V49.2194H174.564C174.405 49.2194 174.288 49.2577 174.211 49.3342C174.135 49.4107 174.091 49.5337 174.08 49.7032ZM180.216 48.2764C180.708 48.2764 181.099 48.3201 181.388 48.4076C181.684 48.4896 181.897 48.6372 182.028 48.8504C182.159 49.0636 182.225 49.3643 182.225 49.7524C182.225 50.1569 182.145 50.4658 181.987 50.679C181.834 50.8867 181.58 51.007 181.224 51.0398V51.0808C181.662 51.1191 181.968 51.2667 182.143 51.5236C182.318 51.7805 182.405 52.1359 182.405 52.5896C182.405 52.9777 182.337 53.2784 182.2 53.4916C182.069 53.7048 181.861 53.8551 181.577 53.9426C181.293 54.0246 180.926 54.0656 180.478 54.0656C180.112 54.0656 179.792 54.0629 179.519 54.0574C179.251 54.0574 179.002 54.0519 178.773 54.041C178.548 54.0301 178.316 54.0164 178.076 54V48.342C178.289 48.3201 178.496 48.3065 178.699 48.301C178.906 48.2901 179.131 48.2846 179.371 48.2846C179.612 48.2791 179.893 48.2764 180.216 48.2764ZM180.15 49.1866C179.986 49.1866 179.833 49.1866 179.691 49.1866C179.549 49.1866 179.418 49.1866 179.297 49.1866V50.6708H180.216C180.522 50.6708 180.732 50.6216 180.847 50.5232C180.967 50.4248 181.028 50.2225 181.028 49.9164C181.028 49.6157 180.965 49.4189 180.839 49.326C180.713 49.2331 180.484 49.1866 180.15 49.1866ZM180.232 51.4662H179.297V53.1554C179.582 53.1554 179.901 53.1554 180.257 53.1554C180.486 53.1554 180.667 53.1335 180.798 53.0898C180.929 53.0461 181.019 52.9668 181.069 52.852C181.123 52.7372 181.151 52.5677 181.151 52.3436C181.151 52.114 181.123 51.9363 181.069 51.8106C181.014 51.6849 180.918 51.5974 180.782 51.5482C180.65 51.4935 180.467 51.4662 180.232 51.4662ZM184.493 48.3174C184.936 48.3174 185.395 48.3229 185.87 48.3338C186.346 48.3393 186.781 48.3611 187.174 48.3994L187.117 49.3096H184.944C184.671 49.3096 184.534 49.449 184.534 49.7278V50.6134H186.805V51.499H184.534V52.6142C184.534 52.893 184.671 53.0324 184.944 53.0324H187.117L187.174 53.9426C186.781 53.9809 186.346 54.0027 185.87 54.0082C185.395 54.0137 184.936 54.0164 184.493 54.0164C184.127 54.0164 183.831 53.9153 183.607 53.713C183.389 53.5053 183.279 53.2292 183.279 52.8848V49.4572C183.279 49.1128 183.391 48.8367 183.615 48.629C183.84 48.4213 184.132 48.3174 184.493 48.3174ZM190.258 48.26C190.783 48.26 191.196 48.3147 191.497 48.424C191.797 48.5333 192.01 48.7219 192.136 48.9898C192.267 49.2577 192.333 49.6321 192.333 50.1132C192.333 50.5943 192.27 50.9687 192.144 51.2366C192.024 51.5045 191.822 51.6903 191.538 51.7942C191.259 51.8981 190.884 51.9527 190.414 51.9582C190.228 51.9527 190.042 51.9445 189.857 51.9336C189.676 51.9227 189.501 51.909 189.332 51.8926V54H188.085V48.342C188.309 48.3201 188.523 48.3037 188.725 48.2928C188.927 48.2819 189.146 48.2737 189.381 48.2682C189.621 48.2627 189.914 48.26 190.258 48.26ZM190.226 49.203C190.062 49.203 189.903 49.203 189.75 49.203C189.602 49.203 189.463 49.203 189.332 49.203V51.0152H190.226C190.554 51.0152 190.778 50.9551 190.898 50.8348C191.018 50.7145 191.078 50.474 191.078 50.1132C191.078 49.7524 191.018 49.5119 190.898 49.3916C190.778 49.2659 190.554 49.203 190.226 49.203ZM194.326 48.3174C194.769 48.3174 195.228 48.3229 195.704 48.3338C196.18 48.3393 196.614 48.3611 197.008 48.3994L196.95 49.3096H194.777C194.504 49.3096 194.367 49.449 194.367 49.7278V50.6134H196.639V51.499H194.367V52.6142C194.367 52.893 194.504 53.0324 194.777 53.0324H196.95L197.008 53.9426C196.614 53.9809 196.18 54.0027 195.704 54.0082C195.228 54.0137 194.769 54.0164 194.326 54.0164C193.96 54.0164 193.665 53.9153 193.441 53.713C193.222 53.5053 193.113 53.2292 193.113 52.8848V49.4572C193.113 49.1128 193.225 48.8367 193.449 48.629C193.673 48.4213 193.966 48.3174 194.326 48.3174ZM202.585 48.342V54H201.388V50.638C201.388 50.5123 201.393 50.3865 201.404 50.2608C201.415 50.1296 201.431 50.0011 201.453 49.8754H201.404C201.316 50.1378 201.21 50.3838 201.084 50.6134L199.141 54H197.919V48.342H199.116V51.6384C199.116 51.7641 199.108 51.8953 199.092 52.032C199.081 52.1687 199.067 52.3026 199.051 52.4338H199.092C199.184 52.1769 199.299 51.9281 199.436 51.6876L201.363 48.342H202.585ZM200.863 46.6446H201.65C201.677 46.8687 201.639 47.0792 201.535 47.276C201.437 47.4673 201.281 47.6231 201.068 47.7434C200.86 47.8582 200.609 47.9156 200.313 47.9156C200.013 47.9156 199.756 47.8582 199.543 47.7434C199.329 47.6231 199.171 47.4673 199.067 47.276C198.963 47.0792 198.928 46.8687 198.96 46.6446H199.748C199.731 46.8906 199.772 47.0655 199.871 47.1694C199.969 47.2733 200.117 47.3252 200.313 47.3252C200.499 47.3252 200.641 47.2733 200.74 47.1694C200.838 47.0655 200.879 46.8906 200.863 46.6446Z" fill="black"/>
<path d="M164.941 35.44V40H144.581V35.44L157.861 16.92H144.901V12.4H164.621V16.92L151.301 35.44H164.941ZM180.059 12C182.966 12 185.272 12.4267 186.979 13.28C188.712 14.1333 189.966 15.5867 190.739 17.64C191.512 19.6933 191.899 22.5467 191.899 26.2C191.899 29.8533 191.512 32.7067 190.739 34.76C189.966 36.8133 188.712 38.2667 186.979 39.12C185.272 39.9467 182.966 40.36 180.059 40.36C177.952 40.36 176.019 40.32 174.259 40.24C172.499 40.1867 170.832 40.1067 169.259 40V12.4C170.859 12.2933 172.526 12.2 174.259 12.12C175.992 12.04 177.926 12 180.059 12ZM180.059 16.68C179.179 16.68 178.339 16.68 177.539 16.68C176.766 16.68 176.032 16.6933 175.339 16.72V35.64C176.779 35.6667 178.352 35.68 180.059 35.68C181.446 35.68 182.526 35.4133 183.299 34.88C184.072 34.32 184.619 33.3467 184.939 31.96C185.286 30.5733 185.459 28.6533 185.459 26.2C185.459 23.7467 185.286 21.8267 184.939 20.44C184.619 19.0533 184.072 18.08 183.299 17.52C182.526 16.96 181.446 16.68 180.059 16.68ZM202.644 12.4V40H196.564V12.4H202.644Z" fill="#B00000"/>
</mask>
<g mask="url(#mask0)">
<rect width="207" height="79" fill="#929292"/>
<rect x="141" width="66" height="44" fill="#515151"/>
</g>
</g>
<defs>
<clipPath id="clip0">
<rect width="207" height="62" fill="white"/>
</clipPath>
</defs>
</svg>
