<svg width="290" height="79" viewBox="0 0 290 79" fill="none" xmlns="http://www.w3.org/2000/svg">
<mask id="mask0" mask-type="alpha" maskUnits="userSpaceOnUse" x="0" y="16" width="285" height="61">
<path d="M14.991 17.214C18.373 17.214 21.052 17.518 23.028 18.126C25.004 18.696 26.429 19.722 27.303 21.204C28.177 22.686 28.614 24.776 28.614 27.474C28.614 30.286 28.082 32.433 27.018 33.915C25.992 35.359 24.282 36.195 21.888 36.423V36.708C24.852 36.974 26.904 38 28.044 39.786C29.222 41.572 29.811 44.042 29.811 47.196C29.811 49.894 29.355 51.984 28.443 53.466C27.569 54.948 26.163 55.993 24.225 56.601C22.325 57.171 19.836 57.456 16.758 57.456C13.566 57.456 10.792 57.323 8.436 57.057C6.08 56.791 3.819 56.354 1.653 55.746L2.28 49.875C4.446 50.217 6.593 50.483 8.721 50.673C10.887 50.825 13.034 50.901 15.162 50.901C17.366 50.901 18.867 50.559 19.665 49.875C20.501 49.153 20.919 47.69 20.919 45.486C20.919 43.168 20.482 41.61 19.608 40.812C18.772 40.014 17.214 39.615 14.934 39.615L7.296 39.501V33.687L14.877 33.63C16.815 33.63 18.145 33.307 18.867 32.661C19.627 31.977 20.007 30.628 20.007 28.614C20.007 26.638 19.608 25.327 18.81 24.681C18.012 24.035 16.549 23.712 14.421 23.712C12.293 23.712 10.317 23.788 8.493 23.94C6.707 24.092 4.902 24.263 3.078 24.453L2.394 18.297C4.294 17.917 6.213 17.651 8.151 17.499C10.089 17.309 12.369 17.214 14.991 17.214ZM55.1395 17.67C55.8615 17.67 56.4885 17.879 57.0205 18.297C57.5905 18.715 57.9705 19.266 58.1605 19.95L69.5605 57H60.6685L57.7615 46.569H44.1955L41.3455 57H32.4535L43.8535 19.95C44.0435 19.266 44.4045 18.715 44.9365 18.297C45.5065 17.879 46.1525 17.67 46.8745 17.67H55.1395ZM49.3825 28.044L46.0195 40.071H55.9375L52.6315 28.044C52.4415 27.436 52.2705 26.809 52.1185 26.163C52.0045 25.479 51.8905 24.833 51.7765 24.225H50.2375C50.1235 24.833 49.9905 25.479 49.8385 26.163C49.6865 26.809 49.5345 27.436 49.3825 28.044ZM88.5611 17.214C91.9811 17.214 94.6981 17.518 96.7121 18.126C98.7641 18.696 100.246 19.722 101.158 21.204C102.07 22.686 102.526 24.776 102.526 27.474C102.526 30.286 101.975 32.433 100.873 33.915C99.8091 35.359 98.0421 36.195 95.5721 36.423V36.708C98.6121 36.974 100.74 38 101.956 39.786C103.172 41.572 103.78 44.042 103.78 47.196C103.78 49.894 103.305 51.984 102.355 53.466C101.443 54.948 99.9991 55.993 98.0231 56.601C96.0471 57.171 93.5011 57.456 90.3851 57.456C87.8391 57.456 85.6161 57.437 83.7161 57.399C81.8541 57.399 80.1251 57.361 78.5291 57.285C76.9711 57.209 75.3561 57.114 73.6841 57V17.67C75.1661 17.518 76.6101 17.423 78.0161 17.385C79.4601 17.309 81.0181 17.271 82.6901 17.271C84.3621 17.233 86.3191 17.214 88.5611 17.214ZM88.1051 23.541C86.9651 23.541 85.9011 23.541 84.9131 23.541C83.9251 23.541 83.0131 23.541 82.1771 23.541V33.858H88.5611C90.6891 33.858 92.1521 33.516 92.9501 32.832C93.7861 32.148 94.2041 30.742 94.2041 28.614C94.2041 26.524 93.7671 25.156 92.8931 24.51C92.0191 23.864 90.4231 23.541 88.1051 23.541ZM88.6751 39.387H82.1771V51.129C84.1531 51.129 86.3761 51.129 88.8461 51.129C90.4421 51.129 91.6961 50.977 92.6081 50.673C93.5201 50.369 94.1471 49.818 94.4891 49.02C94.8691 48.222 95.0591 47.044 95.0591 45.486C95.0591 43.89 94.8691 42.655 94.4891 41.781C94.1091 40.907 93.4441 40.299 92.4941 39.957C91.5821 39.577 90.3091 39.387 88.6751 39.387ZM125.759 16.872C128.875 16.872 131.497 17.214 133.625 17.898C135.791 18.544 137.539 19.646 138.869 21.204C140.199 22.762 141.168 24.852 141.776 27.474C142.384 30.096 142.688 33.383 142.688 37.335C142.688 41.287 142.384 44.574 141.776 47.196C141.168 49.818 140.199 51.908 138.869 53.466C137.539 55.024 135.791 56.126 133.625 56.772C131.497 57.418 128.875 57.741 125.759 57.741C122.643 57.741 120.002 57.418 117.836 56.772C115.67 56.126 113.922 55.024 112.592 53.466C111.262 51.908 110.293 49.818 109.685 47.196C109.115 44.574 108.83 41.287 108.83 37.335C108.83 33.383 109.115 30.096 109.685 27.474C110.293 24.852 111.262 22.762 112.592 21.204C113.922 19.646 115.67 18.544 117.836 17.898C120.002 17.214 122.643 16.872 125.759 16.872ZM125.759 23.712C123.745 23.712 122.168 24.111 121.028 24.909C119.926 25.707 119.128 27.094 118.634 29.07C118.178 31.046 117.95 33.801 117.95 37.335C117.95 40.869 118.178 43.624 118.634 45.6C119.128 47.576 119.926 48.963 121.028 49.761C122.168 50.521 123.745 50.901 125.759 50.901C127.735 50.901 129.293 50.521 130.433 49.761C131.573 48.963 132.371 47.576 132.827 45.6C133.283 43.624 133.511 40.869 133.511 37.335C133.511 33.801 133.283 31.046 132.827 29.07C132.371 27.094 131.573 25.707 130.433 24.909C129.293 24.111 127.735 23.712 125.759 23.712ZM184.926 50.901V65.607H178.713L178.086 57H151.923L151.296 65.607H145.083V50.901H149.244C150.84 46.873 152.018 42.75 152.778 38.532C153.538 34.276 154.089 30.001 154.431 25.707C154.583 23.313 155.438 21.375 156.996 19.893C158.592 18.411 160.682 17.67 163.266 17.67H179.796V50.901H184.926ZM162.525 27.132C162.221 30.742 161.86 33.934 161.442 36.708C161.024 39.482 160.473 42.009 159.789 44.289C159.143 46.569 158.307 48.773 157.281 50.901H171.132V23.769H165.888C164.786 23.769 163.969 24.035 163.437 24.567C162.905 25.099 162.601 25.954 162.525 27.132ZM7.153 67.065V75H5.3935V68.2955H2.5875V75H0.828V67.065H7.153ZM11.8604 66.95C12.5964 66.95 13.1752 67.0267 13.5969 67.18C14.0185 67.3333 14.3175 67.5978 14.4939 67.9735C14.6779 68.3492 14.7699 68.8743 14.7699 69.549C14.7699 70.2237 14.6817 70.7488 14.5054 71.1245C14.3367 71.5002 14.053 71.7608 13.6544 71.9065C13.2634 72.0522 12.7382 72.1288 12.0789 72.1365C11.8182 72.1288 11.5575 72.1173 11.2969 72.102C11.0439 72.0867 10.7985 72.0675 10.5609 72.0445V75H8.81286V67.065C9.1272 67.0343 9.4262 67.0113 9.70986 66.996C9.99353 66.9807 10.3002 66.9692 10.6299 66.9615C10.9672 66.9538 11.3774 66.95 11.8604 66.95ZM11.8144 68.2725C11.5844 68.2725 11.362 68.2725 11.1474 68.2725C10.9404 68.2725 10.7449 68.2725 10.5609 68.2725V70.814H11.8144C12.2744 70.814 12.5887 70.7297 12.7574 70.561C12.926 70.3923 13.0104 70.055 13.0104 69.549C13.0104 69.043 12.926 68.7057 12.7574 68.537C12.5887 68.3607 12.2744 68.2725 11.8144 68.2725ZM19.0722 66.904C19.7009 66.904 20.2299 66.973 20.6592 67.111C21.0962 67.2413 21.4489 67.4637 21.7172 67.778C21.9855 68.0923 22.181 68.514 22.3037 69.043C22.4264 69.572 22.4877 70.2352 22.4877 71.0325C22.4877 71.8298 22.4264 72.493 22.3037 73.022C22.181 73.551 21.9855 73.9727 21.7172 74.287C21.4489 74.6013 21.0962 74.8237 20.6592 74.954C20.2299 75.0843 19.7009 75.1495 19.0722 75.1495C18.4435 75.1495 17.9107 75.0843 17.4737 74.954C17.0367 74.8237 16.684 74.6013 16.4157 74.287C16.1474 73.9727 15.9519 73.551 15.8292 73.022C15.7142 72.493 15.6567 71.8298 15.6567 71.0325C15.6567 70.2352 15.7142 69.572 15.8292 69.043C15.9519 68.514 16.1474 68.0923 16.4157 67.778C16.684 67.4637 17.0367 67.2413 17.4737 67.111C17.9107 66.973 18.4435 66.904 19.0722 66.904ZM19.0722 68.284C18.6659 68.284 18.3477 68.3645 18.1177 68.5255C17.8954 68.6865 17.7344 68.9663 17.6347 69.365C17.5427 69.7637 17.4967 70.3195 17.4967 71.0325C17.4967 71.7455 17.5427 72.3013 17.6347 72.7C17.7344 73.0987 17.8954 73.3785 18.1177 73.5395C18.3477 73.6928 18.6659 73.7695 19.0722 73.7695C19.4709 73.7695 19.7852 73.6928 20.0152 73.5395C20.2452 73.3785 20.4062 73.0987 20.4982 72.7C20.5902 72.3013 20.6362 71.7455 20.6362 71.0325C20.6362 70.3195 20.5902 69.7637 20.4982 69.365C20.4062 68.9663 20.2452 68.6865 20.0152 68.5255C19.7852 68.3645 19.4709 68.284 19.0722 68.284ZM30.4052 67.065V75H28.7262V70.285C28.7262 70.1087 28.7339 69.9323 28.7492 69.756C28.7645 69.572 28.7875 69.3918 28.8182 69.2155H28.7492C28.6265 69.5835 28.477 69.9285 28.3007 70.2505L25.5752 75H23.8617V67.065H25.5407V71.688C25.5407 71.8643 25.5292 72.0483 25.5062 72.24C25.4909 72.4317 25.4717 72.6195 25.4487 72.8035H25.5062C25.6365 72.4432 25.7975 72.0943 25.9892 71.757L28.6917 67.065H30.4052ZM34.2564 66.973C34.9388 66.973 35.4793 67.0343 35.8779 67.157C36.2766 67.272 36.5641 67.479 36.7404 67.778C36.9168 68.077 37.0049 68.4987 37.0049 69.043C37.0049 69.6103 36.8976 70.0435 36.6829 70.3425C36.4759 70.6338 36.1309 70.8025 35.6479 70.8485V70.906C36.2459 70.9597 36.6599 71.1667 36.8899 71.527C37.1276 71.8873 37.2464 72.3857 37.2464 73.022C37.2464 73.5663 37.1544 73.988 36.9704 74.287C36.7941 74.586 36.5104 74.7968 36.1194 74.9195C35.7361 75.0345 35.2339 75.092 34.6129 75.092C33.9689 75.092 33.4093 75.0652 32.9339 75.0115C32.4586 74.9578 32.0024 74.8697 31.5654 74.747L31.6919 73.5625C32.1289 73.6315 32.5621 73.6852 32.9914 73.7235C33.4284 73.7542 33.8616 73.7695 34.2909 73.7695C34.7356 73.7695 35.0384 73.7005 35.1994 73.5625C35.3681 73.4168 35.4524 73.1217 35.4524 72.677C35.4524 72.2093 35.3643 71.895 35.1879 71.734C35.0193 71.573 34.7049 71.4925 34.2449 71.4925L32.7039 71.4695V70.2965L34.2334 70.285C34.6244 70.285 34.8928 70.2198 35.0384 70.0895C35.1918 69.9515 35.2684 69.6793 35.2684 69.273C35.2684 68.8743 35.1879 68.6098 35.0269 68.4795C34.8659 68.3492 34.5708 68.284 34.1414 68.284C33.7121 68.284 33.3134 68.2993 32.9454 68.33C32.5851 68.3607 32.2209 68.3952 31.8529 68.4335L31.7149 67.1915C32.0983 67.1148 32.4854 67.0612 32.8764 67.0305C33.2674 66.9922 33.7274 66.973 34.2564 66.973ZM41.5976 66.973C42.2876 66.973 42.8357 67.0343 43.2421 67.157C43.6561 67.272 43.9551 67.479 44.1391 67.778C44.3231 68.077 44.4151 68.4987 44.4151 69.043C44.4151 69.6103 44.3039 70.0435 44.0816 70.3425C43.8669 70.6338 43.5104 70.8025 43.0121 70.8485V70.906C43.6254 70.9597 44.0547 71.1667 44.3001 71.527C44.5454 71.8873 44.6681 72.3857 44.6681 73.022C44.6681 73.5663 44.5722 73.988 44.3806 74.287C44.1966 74.586 43.9052 74.7968 43.5066 74.9195C43.1079 75.0345 42.5942 75.092 41.9656 75.092C41.4519 75.092 41.0034 75.0882 40.6201 75.0805C40.2444 75.0805 39.8956 75.0728 39.5736 75.0575C39.2592 75.0422 38.9334 75.023 38.5961 75V67.065C38.8951 67.0343 39.1864 67.0152 39.4701 67.0075C39.7614 66.9922 40.0757 66.9845 40.4131 66.9845C40.7504 66.9768 41.1452 66.973 41.5976 66.973ZM41.5056 68.2495C41.2756 68.2495 41.0609 68.2495 40.8616 68.2495C40.6622 68.2495 40.4782 68.2495 40.3096 68.2495V70.331H41.5976C42.0269 70.331 42.3221 70.262 42.4831 70.124C42.6517 69.986 42.7361 69.7023 42.7361 69.273C42.7361 68.8513 42.6479 68.5753 42.4716 68.445C42.2952 68.3147 41.9732 68.2495 41.5056 68.2495ZM41.6206 71.4465H40.3096V73.8155C40.7082 73.8155 41.1567 73.8155 41.6551 73.8155C41.9771 73.8155 42.2301 73.7848 42.4141 73.7235C42.5981 73.6622 42.7246 73.551 42.7936 73.39C42.8702 73.229 42.9086 72.9913 42.9086 72.677C42.9086 72.355 42.8702 72.1058 42.7936 71.9295C42.7169 71.7532 42.5827 71.6305 42.3911 71.5615C42.2071 71.4848 41.9502 71.4465 41.6206 71.4465ZM49.1025 66.904C49.7312 66.904 50.2602 66.973 50.6895 67.111C51.1265 67.2413 51.4792 67.4637 51.7475 67.778C52.0158 68.0923 52.2113 68.514 52.334 69.043C52.4567 69.572 52.518 70.2352 52.518 71.0325C52.518 71.8298 52.4567 72.493 52.334 73.022C52.2113 73.551 52.0158 73.9727 51.7475 74.287C51.4792 74.6013 51.1265 74.8237 50.6895 74.954C50.2602 75.0843 49.7312 75.1495 49.1025 75.1495C48.4738 75.1495 47.941 75.0843 47.504 74.954C47.067 74.8237 46.7143 74.6013 46.446 74.287C46.1777 73.9727 45.9822 73.551 45.8595 73.022C45.7445 72.493 45.687 71.8298 45.687 71.0325C45.687 70.2352 45.7445 69.572 45.8595 69.043C45.9822 68.514 46.1777 68.0923 46.446 67.778C46.7143 67.4637 47.067 67.2413 47.504 67.111C47.941 66.973 48.4738 66.904 49.1025 66.904ZM49.1025 68.284C48.6962 68.284 48.378 68.3645 48.148 68.5255C47.9257 68.6865 47.7647 68.9663 47.665 69.365C47.573 69.7637 47.527 70.3195 47.527 71.0325C47.527 71.7455 47.573 72.3013 47.665 72.7C47.7647 73.0987 47.9257 73.3785 48.148 73.5395C48.378 73.6928 48.6962 73.7695 49.1025 73.7695C49.5012 73.7695 49.8155 73.6928 50.0455 73.5395C50.2755 73.3785 50.4365 73.0987 50.5285 72.7C50.6205 72.3013 50.6665 71.7455 50.6665 71.0325C50.6665 70.3195 50.6205 69.7637 50.5285 69.365C50.4365 68.9663 50.2755 68.6865 50.0455 68.5255C49.8155 68.3645 49.5012 68.284 49.1025 68.284ZM60.4355 67.065V75H58.7565V70.285C58.7565 70.1087 58.7641 69.9323 58.7795 69.756C58.7948 69.572 58.8178 69.3918 58.8485 69.2155H58.7795C58.6568 69.5835 58.5073 69.9285 58.331 70.2505L55.6055 75H53.892V67.065H55.571V71.688C55.571 71.8643 55.5595 72.0483 55.5365 72.24C55.5211 72.4317 55.502 72.6195 55.479 72.8035H55.5365C55.6668 72.4432 55.8278 72.0943 56.0195 71.757L58.722 67.065H60.4355ZM67.9897 67.065V68.445H65.5977V75H63.8497V68.445H61.4577V67.065H67.9897ZM70.6297 67.0305C71.2507 67.0305 71.8947 67.0382 72.5617 67.0535C73.2287 67.0612 73.8382 67.0918 74.3902 67.1455L74.3097 68.422H71.2622C70.8788 68.422 70.6872 68.6175 70.6872 69.0085V70.2505H73.8727V71.4925H70.6872V73.0565C70.6872 73.4475 70.8788 73.643 71.2622 73.643H74.3097L74.3902 74.9195C73.8382 74.9732 73.2287 75.0038 72.5617 75.0115C71.8947 75.0192 71.2507 75.023 70.6297 75.023C70.116 75.023 69.702 74.8812 69.3877 74.5975C69.081 74.3062 68.9277 73.919 68.9277 73.436V68.629C68.9277 68.146 69.0848 67.7588 69.3992 67.4675C69.7135 67.1762 70.1237 67.0305 70.6297 67.0305ZM81.8433 67.065V75H80.0838V68.2955H79.0488C78.5965 68.2955 78.355 68.5178 78.3243 68.9625C78.2323 69.9745 78.1403 70.8293 78.0483 71.527C77.964 72.2247 77.826 72.8188 77.6343 73.3095C77.389 74.0072 77.0402 74.4863 76.5878 74.747C76.1432 75.0077 75.618 75.1035 75.0123 75.0345L74.8743 73.6775C75.1273 73.6238 75.3497 73.5433 75.5413 73.436C75.7407 73.321 75.8978 73.1217 76.0128 72.838C76.1202 72.562 76.2122 72.2515 76.2888 71.9065C76.3655 71.5615 76.4307 71.1398 76.4843 70.6415C76.538 70.1355 76.5917 69.5145 76.6453 68.7785C76.7297 67.6362 77.343 67.065 78.4853 67.065H81.8433ZM86.4283 70.0205C87.1566 70.0205 87.7316 70.101 88.1533 70.262C88.5749 70.4153 88.8778 70.6798 89.0618 71.0555C89.2458 71.4235 89.3378 71.9257 89.3378 72.562C89.3378 73.2213 89.2458 73.735 89.0618 74.103C88.8854 74.471 88.6056 74.7278 88.2223 74.8735C87.8389 75.0192 87.3406 75.092 86.7273 75.092C86.2366 75.092 85.8111 75.0882 85.4508 75.0805C85.0981 75.0805 84.7684 75.0728 84.4618 75.0575C84.1628 75.0422 83.8523 75.023 83.5303 75H83.4843V67.065H85.2438V70.0205H86.4283ZM86.4283 71.205H85.2438V73.781C85.5964 73.781 85.9913 73.781 86.4283 73.781C86.7349 73.781 86.9726 73.7503 87.1413 73.689C87.3099 73.62 87.4249 73.4935 87.4863 73.3095C87.5476 73.1255 87.5783 72.861 87.5783 72.516C87.5783 72.1863 87.5476 71.9257 87.4863 71.734C87.4249 71.5423 87.3099 71.4082 87.1413 71.3315C86.9803 71.2472 86.7426 71.205 86.4283 71.205ZM96.1119 66.927C96.4799 66.927 96.798 66.9385 97.0664 66.9615C97.3347 66.9768 97.58 67.0037 97.8024 67.042C98.0247 67.0803 98.2547 67.1302 98.4924 67.1915L98.3544 68.491C98.1014 68.4757 97.8675 68.4642 97.6529 68.4565C97.4382 68.4488 97.2082 68.4412 96.9629 68.4335C96.7252 68.4258 96.4415 68.422 96.1119 68.422C95.7209 68.422 95.4142 68.5025 95.1919 68.6635C94.9695 68.8168 94.8124 69.0813 94.7204 69.457C94.636 69.8327 94.5939 70.3578 94.5939 71.0325C94.5939 71.6995 94.636 72.2247 94.7204 72.608C94.8124 72.9837 94.9695 73.2482 95.1919 73.4015C95.4142 73.5548 95.7209 73.6315 96.1119 73.6315C96.6409 73.6315 97.0855 73.6277 97.4459 73.62C97.8062 73.6047 98.1627 73.574 98.5154 73.528L98.6649 74.816C98.2969 74.931 97.9212 75.0115 97.5379 75.0575C97.1545 75.1112 96.6792 75.138 96.1119 75.138C95.2915 75.138 94.6322 75.0077 94.1339 74.747C93.6432 74.4787 93.2905 74.0455 93.0759 73.4475C92.8612 72.8495 92.7539 72.0445 92.7539 71.0325C92.7539 70.0205 92.8612 69.2155 93.0759 68.6175C93.2905 68.0195 93.6432 67.5902 94.1339 67.3295C94.6322 67.0612 95.2915 66.927 96.1119 66.927ZM102.818 66.904C103.446 66.904 103.975 66.973 104.405 67.111C104.842 67.2413 105.194 67.4637 105.463 67.778C105.731 68.0923 105.927 68.514 106.049 69.043C106.172 69.572 106.233 70.2352 106.233 71.0325C106.233 71.8298 106.172 72.493 106.049 73.022C105.927 73.551 105.731 73.9727 105.463 74.287C105.194 74.6013 104.842 74.8237 104.405 74.954C103.975 75.0843 103.446 75.1495 102.818 75.1495C102.189 75.1495 101.656 75.0843 101.219 74.954C100.782 74.8237 100.43 74.6013 100.161 74.287C99.893 73.9727 99.6975 73.551 99.5748 73.022C99.4598 72.493 99.4023 71.8298 99.4023 71.0325C99.4023 70.2352 99.4598 69.572 99.5748 69.043C99.6975 68.514 99.893 68.0923 100.161 67.778C100.43 67.4637 100.782 67.2413 101.219 67.111C101.656 66.973 102.189 66.904 102.818 66.904ZM102.818 68.284C102.411 68.284 102.093 68.3645 101.863 68.5255C101.641 68.6865 101.48 68.9663 101.38 69.365C101.288 69.7637 101.242 70.3195 101.242 71.0325C101.242 71.7455 101.288 72.3013 101.38 72.7C101.48 73.0987 101.641 73.3785 101.863 73.5395C102.093 73.6928 102.411 73.7695 102.818 73.7695C103.216 73.7695 103.531 73.6928 103.761 73.5395C103.991 73.3785 104.152 73.0987 104.244 72.7C104.336 72.3013 104.382 71.7455 104.382 71.0325C104.382 70.3195 104.336 69.7637 104.244 69.365C104.152 68.9663 103.991 68.6865 103.761 68.5255C103.531 68.3645 103.216 68.284 102.818 68.284ZM110.609 66.973C111.299 66.973 111.847 67.0343 112.253 67.157C112.667 67.272 112.966 67.479 113.15 67.778C113.334 68.077 113.426 68.4987 113.426 69.043C113.426 69.6103 113.315 70.0435 113.093 70.3425C112.878 70.6338 112.522 70.8025 112.023 70.8485V70.906C112.637 70.9597 113.066 71.1667 113.311 71.527C113.557 71.8873 113.679 72.3857 113.679 73.022C113.679 73.5663 113.583 73.988 113.392 74.287C113.208 74.586 112.916 74.7968 112.518 74.9195C112.119 75.0345 111.605 75.092 110.977 75.092C110.463 75.092 110.015 75.0882 109.631 75.0805C109.256 75.0805 108.907 75.0728 108.585 75.0575C108.27 75.0422 107.945 75.023 107.607 75V67.065C107.906 67.0343 108.198 67.0152 108.481 67.0075C108.773 66.9922 109.087 66.9845 109.424 66.9845C109.762 66.9768 110.156 66.973 110.609 66.973ZM110.517 68.2495C110.287 68.2495 110.072 68.2495 109.873 68.2495C109.673 68.2495 109.489 68.2495 109.321 68.2495V70.331H110.609C111.038 70.331 111.333 70.262 111.494 70.124C111.663 69.986 111.747 69.7023 111.747 69.273C111.747 68.8513 111.659 68.5753 111.483 68.445C111.306 68.3147 110.984 68.2495 110.517 68.2495ZM110.632 71.4465H109.321V73.8155C109.719 73.8155 110.168 73.8155 110.666 73.8155C110.988 73.8155 111.241 73.7848 111.425 73.7235C111.609 73.6622 111.736 73.551 111.805 73.39C111.881 73.229 111.92 72.9913 111.92 72.677C111.92 72.355 111.881 72.1058 111.805 71.9295C111.728 71.7532 111.594 71.6305 111.402 71.5615C111.218 71.4848 110.961 71.4465 110.632 71.4465ZM118.033 66.95C118.769 66.95 119.348 67.0267 119.77 67.18C120.191 67.3333 120.49 67.5978 120.667 67.9735C120.851 68.3492 120.943 68.8743 120.943 69.549C120.943 70.2237 120.855 70.7488 120.678 71.1245C120.51 71.5002 120.226 71.7608 119.827 71.9065C119.436 72.0522 118.911 72.1288 118.252 72.1365C117.991 72.1288 117.73 72.1173 117.47 72.102C117.217 72.0867 116.971 72.0675 116.734 72.0445V75H114.986V67.065C115.3 67.0343 115.599 67.0113 115.883 66.996C116.166 66.9807 116.473 66.9692 116.803 66.9615C117.14 66.9538 117.55 66.95 118.033 66.95ZM117.987 68.2725C117.757 68.2725 117.535 68.2725 117.32 68.2725C117.113 68.2725 116.918 68.2725 116.734 68.2725V70.814H117.987C118.447 70.814 118.762 70.7297 118.93 70.561C119.099 70.3923 119.183 70.055 119.183 69.549C119.183 69.043 119.099 68.7057 118.93 68.537C118.762 68.3607 118.447 68.2725 117.987 68.2725ZM123.739 67.0305C124.36 67.0305 125.004 67.0382 125.671 67.0535C126.338 67.0612 126.947 67.0918 127.499 67.1455L127.419 68.422H124.371C123.988 68.422 123.796 68.6175 123.796 69.0085V70.2505H126.982V71.4925H123.796V73.0565C123.796 73.4475 123.988 73.643 124.371 73.643H127.419L127.499 74.9195C126.947 74.9732 126.338 75.0038 125.671 75.0115C125.004 75.0192 124.36 75.023 123.739 75.023C123.225 75.023 122.811 74.8812 122.497 74.5975C122.19 74.3062 122.037 73.919 122.037 73.436V68.629C122.037 68.146 122.194 67.7588 122.508 67.4675C122.822 67.1762 123.233 67.0305 123.739 67.0305ZM136.896 67.065C137.31 67.065 137.524 67.2797 137.54 67.709L137.839 75H136.217L135.953 68.4105H135.746L134.469 73.367C134.393 73.735 134.163 73.919 133.779 73.919H132.675C132.284 73.919 132.05 73.735 131.974 73.367L130.686 68.4105H130.49L130.249 75H128.627L128.915 67.709C128.93 67.2797 129.149 67.065 129.57 67.065H131.215C131.59 67.065 131.82 67.249 131.905 67.617L132.928 71.619C132.974 71.803 133.013 71.9908 133.043 72.1825C133.074 72.3665 133.108 72.5543 133.147 72.746H133.296C133.335 72.5543 133.369 72.3665 133.4 72.1825C133.43 71.9908 133.469 71.7992 133.515 71.6075L134.527 67.617C134.603 67.249 134.837 67.065 135.228 67.065H136.896ZM140.955 67.0305C141.576 67.0305 142.22 67.0382 142.887 67.0535C143.554 67.0612 144.163 67.0918 144.715 67.1455L144.635 68.422H141.587C141.204 68.422 141.012 68.6175 141.012 69.0085V70.2505H144.198V71.4925H141.012V73.0565C141.012 73.4475 141.204 73.643 141.587 73.643H144.635L144.715 74.9195C144.163 74.9732 143.554 75.0038 142.887 75.0115C142.22 75.0192 141.576 75.023 140.955 75.023C140.441 75.023 140.027 74.8812 139.713 74.5975C139.406 74.3062 139.253 73.919 139.253 73.436V68.629C139.253 68.146 139.41 67.7588 139.724 67.4675C140.039 67.1762 140.449 67.0305 140.955 67.0305ZM147.753 67.065V70.1125H150.582V67.065H152.33V75H150.582V71.4235H147.753V75H145.993V67.065H147.753ZM155.749 67.065V70.1125H158.578V67.065H160.326V75H158.578V71.4235H155.749V75H153.989V67.065H155.749ZM164.906 70.0205C165.635 70.0205 166.206 70.101 166.62 70.262C167.041 70.4153 167.34 70.6798 167.517 71.0555C167.701 71.4235 167.793 71.9257 167.793 72.562C167.793 73.2213 167.705 73.735 167.528 74.103C167.352 74.471 167.072 74.7278 166.689 74.8735C166.305 75.0192 165.811 75.092 165.205 75.092C164.722 75.092 164.301 75.0882 163.94 75.0805C163.588 75.0805 163.262 75.0728 162.963 75.0575C162.664 75.0422 162.353 75.023 162.031 75H161.985V67.065H163.745V70.0205H164.906ZM170.691 67.065V75H168.931V67.065H170.691ZM164.906 71.205H163.745V73.781C164.097 73.781 164.485 73.781 164.906 73.781C165.213 73.781 165.447 73.7503 165.608 73.689C165.769 73.62 165.88 73.4935 165.941 73.3095C166.003 73.1255 166.033 72.861 166.033 72.516C166.033 72.1863 166.003 71.9257 165.941 71.734C165.888 71.5423 165.78 71.4082 165.619 71.3315C165.458 71.2472 165.221 71.205 164.906 71.205ZM173.581 67.065L175.145 70.3655H175.318L176.893 67.065H178.664L176.721 70.9175L178.825 75H177.031L175.306 71.4465H175.157L173.432 75H171.649L173.742 70.9175L171.799 67.065H173.581ZM185.258 66.973C185.948 66.973 186.496 67.0343 186.902 67.157C187.316 67.272 187.615 67.479 187.799 67.778C187.983 68.077 188.075 68.4987 188.075 69.043C188.075 69.6103 187.964 70.0435 187.742 70.3425C187.527 70.6338 187.171 70.8025 186.672 70.8485V70.906C187.286 70.9597 187.715 71.1667 187.96 71.527C188.206 71.8873 188.328 72.3857 188.328 73.022C188.328 73.5663 188.232 73.988 188.041 74.287C187.857 74.586 187.565 74.7968 187.167 74.9195C186.768 75.0345 186.254 75.092 185.626 75.092C185.112 75.092 184.664 75.0882 184.28 75.0805C183.905 75.0805 183.556 75.0728 183.234 75.0575C182.919 75.0422 182.594 75.023 182.256 75V67.065C182.555 67.0343 182.847 67.0152 183.13 67.0075C183.422 66.9922 183.736 66.9845 184.073 66.9845C184.411 66.9768 184.805 66.973 185.258 66.973ZM185.166 68.2495C184.936 68.2495 184.721 68.2495 184.522 68.2495C184.322 68.2495 184.138 68.2495 183.97 68.2495V70.331H185.258C185.687 70.331 185.982 70.262 186.143 70.124C186.312 69.986 186.396 69.7023 186.396 69.273C186.396 68.8513 186.308 68.5753 186.132 68.445C185.955 68.3147 185.633 68.2495 185.166 68.2495ZM185.281 71.4465H183.97V73.8155C184.368 73.8155 184.817 73.8155 185.315 73.8155C185.637 73.8155 185.89 73.7848 186.074 73.7235C186.258 73.6622 186.385 73.551 186.454 73.39C186.53 73.229 186.569 72.9913 186.569 72.677C186.569 72.355 186.53 72.1058 186.454 71.9295C186.377 71.7532 186.243 71.6305 186.051 71.5615C185.867 71.4848 185.61 71.4465 185.281 71.4465ZM190.865 67.065L192.429 70.3655H192.602L194.177 67.065H195.948L194.005 70.9175L196.109 75H194.315L192.59 71.4465H192.441L190.716 75H188.933L191.026 70.9175L189.083 67.065H190.865ZM199.961 66.904C200.59 66.904 201.119 66.973 201.548 67.111C201.985 67.2413 202.338 67.4637 202.606 67.778C202.875 68.0923 203.07 68.514 203.193 69.043C203.316 69.572 203.377 70.2352 203.377 71.0325C203.377 71.8298 203.316 72.493 203.193 73.022C203.07 73.551 202.875 73.9727 202.606 74.287C202.338 74.6013 201.985 74.8237 201.548 74.954C201.119 75.0843 200.59 75.1495 199.961 75.1495C199.333 75.1495 198.8 75.0843 198.363 74.954C197.926 74.8237 197.573 74.6013 197.305 74.287C197.037 73.9727 196.841 73.551 196.718 73.022C196.603 72.493 196.546 71.8298 196.546 71.0325C196.546 70.2352 196.603 69.572 196.718 69.043C196.841 68.514 197.037 68.0923 197.305 67.778C197.573 67.4637 197.926 67.2413 198.363 67.111C198.8 66.973 199.333 66.904 199.961 66.904ZM199.961 68.284C199.555 68.284 199.237 68.3645 199.007 68.5255C198.785 68.6865 198.624 68.9663 198.524 69.365C198.432 69.7637 198.386 70.3195 198.386 71.0325C198.386 71.7455 198.432 72.3013 198.524 72.7C198.624 73.0987 198.785 73.3785 199.007 73.5395C199.237 73.6928 199.555 73.7695 199.961 73.7695C200.36 73.7695 200.674 73.6928 200.904 73.5395C201.134 73.3785 201.295 73.0987 201.387 72.7C201.479 72.3013 201.525 71.7455 201.525 71.0325C201.525 70.3195 201.479 69.7637 201.387 69.365C201.295 68.9663 201.134 68.6865 200.904 68.5255C200.674 68.3645 200.36 68.284 199.961 68.284ZM211.899 73.7695V76.7365H210.645L210.519 75H205.24L205.114 76.7365H203.86V73.7695H204.7C205.022 72.9568 205.259 72.125 205.413 71.274C205.566 70.4153 205.677 69.5528 205.746 68.6865C205.777 68.2035 205.949 67.8125 206.264 67.5135C206.586 67.2145 207.007 67.065 207.529 67.065H210.864V73.7695H211.899ZM207.379 68.974C207.318 69.7023 207.245 70.3463 207.161 70.906C207.076 71.4657 206.965 71.9755 206.827 72.4355C206.697 72.8955 206.528 73.3402 206.321 73.7695H209.116V68.2955H208.058C207.835 68.2955 207.67 68.3492 207.563 68.4565C207.456 68.5638 207.394 68.7363 207.379 68.974ZM214.742 67.065V70.1125H217.571V67.065H219.319V75H217.571V71.4235H214.742V75H212.983V67.065H214.742ZM223.9 70.0205C224.628 70.0205 225.199 70.101 225.613 70.262C226.035 70.4153 226.334 70.6798 226.51 71.0555C226.694 71.4235 226.786 71.9257 226.786 72.562C226.786 73.2213 226.698 73.735 226.522 74.103C226.346 74.471 226.066 74.7278 225.682 74.8735C225.299 75.0192 224.805 75.092 224.199 75.092C223.716 75.092 223.294 75.0882 222.934 75.0805C222.581 75.0805 222.255 75.0728 221.956 75.0575C221.657 75.0422 221.347 75.023 221.025 75H220.979V67.065H222.738V70.0205H223.9ZM229.684 67.065V75H227.925V67.065H229.684ZM223.9 71.205H222.738V73.781C223.091 73.781 223.478 73.781 223.9 73.781C224.207 73.781 224.44 73.7503 224.601 73.689C224.762 73.62 224.874 73.4935 224.935 73.3095C224.996 73.1255 225.027 72.861 225.027 72.516C225.027 72.1863 224.996 71.9257 224.935 71.734C224.881 71.5423 224.774 71.4082 224.613 71.3315C224.452 71.2472 224.214 71.205 223.9 71.205ZM232.575 67.065L234.139 70.3655H234.312L235.887 67.065H237.658L235.715 70.9175L237.819 75H236.025L234.3 71.4465H234.151L232.426 75H230.643L232.736 70.9175L230.793 67.065H232.575ZM248.656 73.7695V76.7365H247.402L247.276 75H241.997L241.871 76.7365H240.617V73.7695H241.457C241.779 72.9568 242.017 72.125 242.17 71.274C242.323 70.4153 242.434 69.5528 242.503 68.6865C242.534 68.2035 242.707 67.8125 243.021 67.5135C243.343 67.2145 243.765 67.065 244.286 67.065H247.621V73.7695H248.656ZM244.136 68.974C244.075 69.7023 244.002 70.3463 243.918 70.906C243.834 71.4657 243.722 71.9755 243.584 72.4355C243.454 72.8955 243.285 73.3402 243.078 73.7695H245.873V68.2955H244.815C244.593 68.2955 244.428 68.3492 244.32 68.4565C244.213 68.5638 244.152 68.7363 244.136 68.974ZM252.742 66.973C253.432 66.973 253.98 67.0343 254.386 67.157C254.8 67.272 255.099 67.479 255.283 67.778C255.467 68.077 255.559 68.4987 255.559 69.043C255.559 69.6103 255.448 70.0435 255.226 70.3425C255.011 70.6338 254.654 70.8025 254.156 70.8485V70.906C254.769 70.9597 255.199 71.1667 255.444 71.527C255.689 71.8873 255.812 72.3857 255.812 73.022C255.812 73.5663 255.716 73.988 255.525 74.287C255.341 74.586 255.049 74.7968 254.651 74.9195C254.252 75.0345 253.738 75.092 253.11 75.092C252.596 75.092 252.147 75.0882 251.764 75.0805C251.388 75.0805 251.04 75.0728 250.718 75.0575C250.403 75.0422 250.077 75.023 249.74 75V67.065C250.039 67.0343 250.33 67.0152 250.614 67.0075C250.905 66.9922 251.22 66.9845 251.557 66.9845C251.894 66.9768 252.289 66.973 252.742 66.973ZM252.65 68.2495C252.42 68.2495 252.205 68.2495 252.006 68.2495C251.806 68.2495 251.622 68.2495 251.454 68.2495V70.331H252.742C253.171 70.331 253.466 70.262 253.627 70.124C253.796 69.986 253.88 69.7023 253.88 69.273C253.88 68.8513 253.792 68.5753 253.616 68.445C253.439 68.3147 253.117 68.2495 252.65 68.2495ZM252.765 71.4465H251.454V73.8155C251.852 73.8155 252.301 73.8155 252.799 73.8155C253.121 73.8155 253.374 73.7848 253.558 73.7235C253.742 73.6622 253.869 73.551 253.938 73.39C254.014 73.229 254.053 72.9913 254.053 72.677C254.053 72.355 254.014 72.1058 253.938 71.9295C253.861 71.7532 253.727 71.6305 253.535 71.5615C253.351 71.4848 253.094 71.4465 252.765 71.4465ZM258.74 67.0305C259.361 67.0305 260.005 67.0382 260.672 67.0535C261.339 67.0612 261.949 67.0918 262.501 67.1455L262.42 68.422H259.373C258.989 68.422 258.798 68.6175 258.798 69.0085V70.2505H261.983V71.4925H258.798V73.0565C258.798 73.4475 258.989 73.643 259.373 73.643H262.42L262.501 74.9195C261.949 74.9732 261.339 75.0038 260.672 75.0115C260.005 75.0192 259.361 75.023 258.74 75.023C258.226 75.023 257.812 74.8812 257.498 74.5975C257.191 74.3062 257.038 73.919 257.038 73.436V68.629C257.038 68.146 257.195 67.7588 257.51 67.4675C257.824 67.1762 258.234 67.0305 258.74 67.0305ZM266.826 66.95C267.562 66.95 268.141 67.0267 268.562 67.18C268.984 67.3333 269.283 67.5978 269.459 67.9735C269.643 68.3492 269.735 68.8743 269.735 69.549C269.735 70.2237 269.647 70.7488 269.471 71.1245C269.302 71.5002 269.018 71.7608 268.62 71.9065C268.229 72.0522 267.704 72.1288 267.044 72.1365C266.784 72.1288 266.523 72.1173 266.262 72.102C266.009 72.0867 265.764 72.0675 265.526 72.0445V75H263.778V67.065C264.093 67.0343 264.392 67.0113 264.675 66.996C264.959 66.9807 265.266 66.9692 265.595 66.9615C265.933 66.9538 266.343 66.95 266.826 66.95ZM266.78 68.2725C266.55 68.2725 266.327 68.2725 266.113 68.2725C265.906 68.2725 265.71 68.2725 265.526 68.2725V70.814H266.78C267.24 70.814 267.554 70.7297 267.723 70.561C267.891 70.3923 267.976 70.055 267.976 69.549C267.976 69.043 267.891 68.7057 267.723 68.537C267.554 68.3607 267.24 68.2725 266.78 68.2725ZM272.531 67.0305C273.152 67.0305 273.796 67.0382 274.463 67.0535C275.13 67.0612 275.74 67.0918 276.292 67.1455L276.211 68.422H273.164C272.78 68.422 272.589 68.6175 272.589 69.0085V70.2505H275.774V71.4925H272.589V73.0565C272.589 73.4475 272.78 73.643 273.164 73.643H276.211L276.292 74.9195C275.74 74.9732 275.13 75.0038 274.463 75.0115C273.796 75.0192 273.152 75.023 272.531 75.023C272.017 75.023 271.603 74.8812 271.289 74.5975C270.982 74.3062 270.829 73.919 270.829 73.436V68.629C270.829 68.146 270.986 67.7588 271.301 67.4675C271.615 67.1762 272.025 67.0305 272.531 67.0305ZM284.113 67.065V75H282.434V70.285C282.434 70.1087 282.441 69.9323 282.457 69.756C282.472 69.572 282.495 69.3918 282.526 69.2155H282.457C282.334 69.5835 282.185 69.9285 282.008 70.2505L279.283 75H277.569V67.065H279.248V71.688C279.248 71.8643 279.237 72.0483 279.214 72.24C279.198 72.4317 279.179 72.6195 279.156 72.8035H279.214C279.344 72.4432 279.505 72.0943 279.697 71.757L282.399 67.065H284.113ZM281.698 64.6845H282.802C282.84 64.9988 282.786 65.294 282.641 65.57C282.503 65.8383 282.284 66.0568 281.985 66.2255C281.694 66.3865 281.341 66.467 280.927 66.467C280.506 66.467 280.145 66.3865 279.846 66.2255C279.547 66.0568 279.325 65.8383 279.179 65.57C279.034 65.294 278.984 64.9988 279.03 64.6845H280.134C280.111 65.0295 280.168 65.2748 280.306 65.4205C280.444 65.5662 280.651 65.639 280.927 65.639C281.188 65.639 281.387 65.5662 281.525 65.4205C281.663 65.2748 281.721 65.0295 281.698 64.6845Z" fill="black"/>
<path d="M229.79 50.502V57H200.777V50.502L219.701 24.111H201.233V17.67H229.334V24.111L210.353 50.502H229.79ZM251.332 17.1C255.474 17.1 258.761 17.708 261.193 18.924C263.663 20.14 265.449 22.211 266.551 25.137C267.653 28.063 268.204 32.129 268.204 37.335C268.204 42.541 267.653 46.607 266.551 49.533C265.449 52.459 263.663 54.53 261.193 55.746C258.761 56.924 255.474 57.513 251.332 57.513C248.33 57.513 245.575 57.456 243.067 57.342C240.559 57.266 238.184 57.152 235.942 57V17.67C238.222 17.518 240.597 17.385 243.067 17.271C245.537 17.157 248.292 17.1 251.332 17.1ZM251.332 23.769C250.078 23.769 248.881 23.769 247.741 23.769C246.639 23.769 245.594 23.788 244.606 23.826V50.787C246.658 50.825 248.9 50.844 251.332 50.844C253.308 50.844 254.847 50.464 255.949 49.704C257.051 48.906 257.83 47.519 258.286 45.543C258.78 43.567 259.027 40.831 259.027 37.335C259.027 33.839 258.78 31.103 258.286 29.127C257.83 27.151 257.051 25.764 255.949 24.966C254.847 24.168 253.308 23.769 251.332 23.769ZM283.515 17.67V57H274.851V17.67H283.515Z" fill="#B00000"/>
</mask>
<g mask="url(#mask0)">
<rect x="-136" y="-3" width="328" height="111" fill="#929292"/>
<rect x="-13" y="62" width="328" height="111" fill="#929292"/>
<rect x="192" y="-49" width="328" height="111" fill="#515151"/>
</g>
</svg>
