<svg width="34" height="21" viewBox="0 0 34 21" fill="none" xmlns="http://www.w3.org/2000/svg">
<path d="M1 3C7 5 6 1 10 1C14 1 13 3.5 17 3.5C21 3.5 20 1 24 1C28 1 27 5 33 3" stroke="black" stroke-width="1.5" stroke-linecap="round"/>
<path d="M1 11C7 13 6 9 10 9C14 9 13 11.5 17 11.5C21 11.5 20 9 24 9C28 9 27 13 33 11" stroke="black" stroke-width="1.5" stroke-linecap="round"/>
<path d="M1 19C7 21 6 17 10 17C14 17 13 19.5 17 19.5C21 19.5 20 17 24 17C28 17 27 21 33 19" stroke="black" stroke-width="1.5" stroke-linecap="round"/>
</svg>
