<svg width="34" height="19" viewBox="0 0 34 19" fill="none" xmlns="http://www.w3.org/2000/svg">
<path d="M1 3C7 5 6 1 10 1C14 1 13 3.5 17 3.5C21 3.5 20 1 24 1C28 1 27 5 33 3" stroke="black" stroke-width="1.5" stroke-linecap="round"/>
<path d="M1 10C7 12 6 8 10 8C14 8 13 10.5 17 10.5C21 10.5 20 8 24 8C28 8 27 12 33 10" stroke="black" stroke-width="1.5" stroke-linecap="round"/>
<path d="M1 17C7 19 6 15 10 15C14 15 13 17.5 17 17.5C21 17.5 20 15 24 15C28 15 27 19 33 17" stroke="black" stroke-width="1.5" stroke-linecap="round"/>
</svg>
