<svg width="290" height="79" viewBox="0 0 290 79" fill="none" xmlns="http://www.w3.org/2000/svg">
<path d="M14.991 17.214C18.373 17.214 21.052 17.518 23.028 18.126C25.004 18.696 26.429 19.722 27.303 21.204C28.177 22.686 28.614 24.776 28.614 27.474C28.614 30.286 28.082 32.433 27.018 33.915C25.992 35.359 24.282 36.195 21.888 36.423V36.708C24.852 36.974 26.904 38 28.044 39.786C29.222 41.572 29.811 44.042 29.811 47.196C29.811 49.894 29.355 51.984 28.443 53.466C27.569 54.948 26.163 55.993 24.225 56.601C22.325 57.171 19.836 57.456 16.758 57.456C13.566 57.456 10.792 57.323 8.436 57.057C6.08 56.791 3.819 56.354 1.653 55.746L2.28 49.875C4.446 50.217 6.593 50.483 8.721 50.673C10.887 50.825 13.034 50.901 15.162 50.901C17.366 50.901 18.867 50.559 19.665 49.875C20.501 49.153 20.919 47.69 20.919 45.486C20.919 43.168 20.482 41.61 19.608 40.812C18.772 40.014 17.214 39.615 14.934 39.615L7.296 39.501V33.687L14.877 33.63C16.815 33.63 18.145 33.307 18.867 32.661C19.627 31.977 20.007 30.628 20.007 28.614C20.007 26.638 19.608 25.327 18.81 24.681C18.012 24.035 16.549 23.712 14.421 23.712C12.293 23.712 10.317 23.788 8.493 23.94C6.707 24.092 4.902 24.263 3.078 24.453L2.394 18.297C4.294 17.917 6.213 17.651 8.151 17.499C10.089 17.309 12.369 17.214 14.991 17.214ZM55.1395 17.67C55.8615 17.67 56.4885 17.879 57.0205 18.297C57.5905 18.715 57.9705 19.266 58.1605 19.95L69.5605 57H60.6685L57.7615 46.569H44.1955L41.3455 57H32.4535L43.8535 19.95C44.0435 19.266 44.4045 18.715 44.9365 18.297C45.5065 17.879 46.1525 17.67 46.8745 17.67H55.1395ZM49.3825 28.044L46.0195 40.071H55.9375L52.6315 28.044C52.4415 27.436 52.2705 26.809 52.1185 26.163C52.0045 25.479 51.8905 24.833 51.7765 24.225H50.2375C50.1235 24.833 49.9905 25.479 49.8385 26.163C49.6865 26.809 49.5345 27.436 49.3825 28.044ZM88.5611 17.214C91.9811 17.214 94.6981 17.518 96.7121 18.126C98.7641 18.696 100.246 19.722 101.158 21.204C102.07 22.686 102.526 24.776 102.526 27.474C102.526 30.286 101.975 32.433 100.873 33.915C99.8091 35.359 98.0421 36.195 95.5721 36.423V36.708C98.6121 36.974 100.74 38 101.956 39.786C103.172 41.572 103.78 44.042 103.78 47.196C103.78 49.894 103.305 51.984 102.355 53.466C101.443 54.948 99.9991 55.993 98.0231 56.601C96.0471 57.171 93.5011 57.456 90.3851 57.456C87.8391 57.456 85.6161 57.437 83.7161 57.399C81.8541 57.399 80.1251 57.361 78.5291 57.285C76.9711 57.209 75.3561 57.114 73.6841 57V17.67C75.1661 17.518 76.6101 17.423 78.0161 17.385C79.4601 17.309 81.0181 17.271 82.6901 17.271C84.3621 17.233 86.3191 17.214 88.5611 17.214ZM88.1051 23.541C86.9651 23.541 85.9011 23.541 84.9131 23.541C83.9251 23.541 83.0131 23.541 82.1771 23.541V33.858H88.5611C90.6891 33.858 92.1521 33.516 92.9501 32.832C93.7861 32.148 94.2041 30.742 94.2041 28.614C94.2041 26.524 93.7671 25.156 92.8931 24.51C92.0191 23.864 90.4231 23.541 88.1051 23.541ZM88.6751 39.387H82.1771V51.129C84.1531 51.129 86.3761 51.129 88.8461 51.129C90.4421 51.129 91.6961 50.977 92.6081 50.673C93.5201 50.369 94.1471 49.818 94.4891 49.02C94.8691 48.222 95.0591 47.044 95.0591 45.486C95.0591 43.89 94.8691 42.655 94.4891 41.781C94.1091 40.907 93.4441 40.299 92.4941 39.957C91.5821 39.577 90.3091 39.387 88.6751 39.387ZM125.759 16.872C128.875 16.872 131.497 17.214 133.625 17.898C135.791 18.544 137.539 19.646 138.869 21.204C140.199 22.762 141.168 24.852 141.776 27.474C142.384 30.096 142.688 33.383 142.688 37.335C142.688 41.287 142.384 44.574 141.776 47.196C141.168 49.818 140.199 51.908 138.869 53.466C137.539 55.024 135.791 56.126 133.625 56.772C131.497 57.418 128.875 57.741 125.759 57.741C122.643 57.741 120.002 57.418 117.836 56.772C115.67 56.126 113.922 55.024 112.592 53.466C111.262 51.908 110.293 49.818 109.685 47.196C109.115 44.574 108.83 41.287 108.83 37.335C108.83 33.383 109.115 30.096 109.685 27.474C110.293 24.852 111.262 22.762 112.592 21.204C113.922 19.646 115.67 18.544 117.836 17.898C120.002 17.214 122.643 16.872 125.759 16.872ZM125.759 23.712C123.745 23.712 122.168 24.111 121.028 24.909C119.926 25.707 119.128 27.094 118.634 29.07C118.178 31.046 117.95 33.801 117.95 37.335C117.95 40.869 118.178 43.624 118.634 45.6C119.128 47.576 119.926 48.963 121.028 49.761C122.168 50.521 123.745 50.901 125.759 50.901C127.735 50.901 129.293 50.521 130.433 49.761C131.573 48.963 132.371 47.576 132.827 45.6C133.283 43.624 133.511 40.869 133.511 37.335C133.511 33.801 133.283 31.046 132.827 29.07C132.371 27.094 131.573 25.707 130.433 24.909C129.293 24.111 127.735 23.712 125.759 23.712ZM184.926 50.901V65.607H178.713L178.086 57H151.923L151.296 65.607H145.083V50.901H149.244C150.84 46.873 152.018 42.75 152.778 38.532C153.538 34.276 154.089 30.001 154.431 25.707C154.583 23.313 155.438 21.375 156.996 19.893C158.592 18.411 160.682 17.67 163.266 17.67H179.796V50.901H184.926ZM162.525 27.132C162.221 30.742 161.86 33.934 161.442 36.708C161.024 39.482 160.473 42.009 159.789 44.289C159.143 46.569 158.307 48.773 157.281 50.901H171.132V23.769H165.888C164.786 23.769 163.969 24.035 163.437 24.567C162.905 25.099 162.601 25.954 162.525 27.132ZM6.9664 66.272V74H5.2528V67.4704H2.52V74H0.8064V66.272H6.9664ZM11.551 66.16C12.2678 66.16 12.8315 66.2347 13.2422 66.384C13.6528 66.5333 13.944 66.7909 14.1158 67.1568C14.295 67.5227 14.3846 68.0341 14.3846 68.6912C14.3846 69.3483 14.2987 69.8597 14.127 70.2256C13.9627 70.5915 13.6864 70.8453 13.2982 70.9872C12.9174 71.1291 12.4059 71.2037 11.7638 71.2112C11.5099 71.2037 11.256 71.1925 11.0022 71.1776C10.7558 71.1627 10.5168 71.144 10.2854 71.1216V74H8.58296V66.272C8.8891 66.2421 9.1803 66.2197 9.45656 66.2048C9.73283 66.1899 10.0315 66.1787 10.3526 66.1712C10.6811 66.1637 11.0806 66.16 11.551 66.16ZM11.5062 67.448C11.2822 67.448 11.0656 67.448 10.8566 67.448C10.655 67.448 10.4646 67.448 10.2854 67.448V69.9232H11.5062C11.9542 69.9232 12.2603 69.8411 12.4246 69.6768C12.5888 69.5125 12.671 69.184 12.671 68.6912C12.671 68.1984 12.5888 67.8699 12.4246 67.7056C12.2603 67.5339 11.9542 67.448 11.5062 67.448ZM18.5747 66.1152C19.1869 66.1152 19.7021 66.1824 20.1203 66.3168C20.5459 66.4437 20.8893 66.6603 21.1507 66.9664C21.412 67.2725 21.6024 67.6832 21.7219 68.1984C21.8413 68.7136 21.9011 69.3595 21.9011 70.136C21.9011 70.9125 21.8413 71.5584 21.7219 72.0736C21.6024 72.5888 21.412 72.9995 21.1507 73.3056C20.8893 73.6117 20.5459 73.8283 20.1203 73.9552C19.7021 74.0821 19.1869 74.1456 18.5747 74.1456C17.9624 74.1456 17.4435 74.0821 17.0179 73.9552C16.5923 73.8283 16.2488 73.6117 15.9875 73.3056C15.7261 72.9995 15.5357 72.5888 15.4163 72.0736C15.3043 71.5584 15.2483 70.9125 15.2483 70.136C15.2483 69.3595 15.3043 68.7136 15.4163 68.1984C15.5357 67.6832 15.7261 67.2725 15.9875 66.9664C16.2488 66.6603 16.5923 66.4437 17.0179 66.3168C17.4435 66.1824 17.9624 66.1152 18.5747 66.1152ZM18.5747 67.4592C18.1789 67.4592 17.8691 67.5376 17.6451 67.6944C17.4285 67.8512 17.2717 68.1237 17.1747 68.512C17.0851 68.9003 17.0403 69.4416 17.0403 70.136C17.0403 70.8304 17.0851 71.3717 17.1747 71.76C17.2717 72.1483 17.4285 72.4208 17.6451 72.5776C17.8691 72.7269 18.1789 72.8016 18.5747 72.8016C18.9629 72.8016 19.2691 72.7269 19.4931 72.5776C19.7171 72.4208 19.8739 72.1483 19.9635 71.76C20.0531 71.3717 20.0979 70.8304 20.0979 70.136C20.0979 69.4416 20.0531 68.9003 19.9635 68.512C19.8739 68.1237 19.7171 67.8512 19.4931 67.6944C19.2691 67.5376 18.9629 67.4592 18.5747 67.4592ZM29.612 66.272V74H27.9768V69.408C27.9768 69.2363 27.9843 69.0645 27.9992 68.8928C28.0141 68.7136 28.0365 68.5381 28.0664 68.3664H27.9992C27.8797 68.7248 27.7341 69.0608 27.5624 69.3744L24.908 74H23.2392V66.272H24.8744V70.7744C24.8744 70.9461 24.8632 71.1253 24.8408 71.312C24.8259 71.4987 24.8072 71.6816 24.7848 71.8608H24.8408C24.9677 71.5099 25.1245 71.1701 25.3112 70.8416L27.9432 66.272H29.612ZM33.3628 66.1824C34.0273 66.1824 34.5537 66.2421 34.942 66.3616C35.3303 66.4736 35.6103 66.6752 35.782 66.9664C35.9537 67.2576 36.0396 67.6683 36.0396 68.1984C36.0396 68.7509 35.9351 69.1728 35.726 69.464C35.5244 69.7477 35.1884 69.912 34.718 69.9568V70.0128C35.3004 70.0651 35.7036 70.2667 35.9276 70.6176C36.1591 70.9685 36.2748 71.4539 36.2748 72.0736C36.2748 72.6037 36.1852 73.0144 36.006 73.3056C35.8343 73.5968 35.558 73.8021 35.1772 73.9216C34.8039 74.0336 34.3148 74.0896 33.71 74.0896C33.0828 74.0896 32.5377 74.0635 32.0748 74.0112C31.6119 73.9589 31.1676 73.8731 30.742 73.7536L30.8652 72.6C31.2908 72.6672 31.7127 72.7195 32.1308 72.7568C32.5564 72.7867 32.9783 72.8016 33.3964 72.8016C33.8295 72.8016 34.1244 72.7344 34.2812 72.6C34.4455 72.4581 34.5276 72.1707 34.5276 71.7376C34.5276 71.2821 34.4417 70.976 34.27 70.8192C34.1057 70.6624 33.7996 70.584 33.3516 70.584L31.8508 70.5616V69.4192L33.3404 69.408C33.7212 69.408 33.9825 69.3445 34.1244 69.2176C34.2737 69.0832 34.3484 68.8181 34.3484 68.4224C34.3484 68.0341 34.27 67.7765 34.1132 67.6496C33.9564 67.5227 33.6689 67.4592 33.2508 67.4592C32.8327 67.4592 32.4444 67.4741 32.086 67.504C31.7351 67.5339 31.3804 67.5675 31.022 67.6048L30.8876 66.3952C31.2609 66.3205 31.638 66.2683 32.0188 66.2384C32.3996 66.2011 32.8476 66.1824 33.3628 66.1824ZM40.5124 66.1824C41.1844 66.1824 41.7183 66.2421 42.114 66.3616C42.5172 66.4736 42.8084 66.6752 42.9876 66.9664C43.1668 67.2576 43.2564 67.6683 43.2564 68.1984C43.2564 68.7509 43.1481 69.1728 42.9316 69.464C42.7225 69.7477 42.3753 69.912 41.89 69.9568V70.0128C42.4873 70.0651 42.9055 70.2667 43.1444 70.6176C43.3833 70.9685 43.5028 71.4539 43.5028 72.0736C43.5028 72.6037 43.4095 73.0144 43.2228 73.3056C43.0436 73.5968 42.7599 73.8021 42.3716 73.9216C41.9833 74.0336 41.4831 74.0896 40.8708 74.0896C40.3705 74.0896 39.9337 74.0859 39.5604 74.0784C39.1945 74.0784 38.8548 74.0709 38.5412 74.056C38.2351 74.0411 37.9177 74.0224 37.5892 74V66.272C37.8804 66.2421 38.1641 66.2235 38.4404 66.216C38.7241 66.2011 39.0303 66.1936 39.3588 66.1936C39.6873 66.1861 40.0719 66.1824 40.5124 66.1824ZM40.4228 67.4256C40.1988 67.4256 39.9897 67.4256 39.7956 67.4256C39.6015 67.4256 39.4223 67.4256 39.258 67.4256V69.4528H40.5124C40.9305 69.4528 41.218 69.3856 41.3748 69.2512C41.5391 69.1168 41.6212 68.8405 41.6212 68.4224C41.6212 68.0117 41.5353 67.7429 41.3636 67.616C41.1919 67.4891 40.8783 67.4256 40.4228 67.4256ZM40.5348 70.5392H39.258V72.8464C39.6463 72.8464 40.0831 72.8464 40.5684 72.8464C40.882 72.8464 41.1284 72.8165 41.3076 72.7568C41.4868 72.6971 41.61 72.5888 41.6772 72.432C41.7519 72.2752 41.7892 72.0437 41.7892 71.7376C41.7892 71.424 41.7519 71.1813 41.6772 71.0096C41.6025 70.8379 41.4719 70.7184 41.2852 70.6512C41.106 70.5765 40.8559 70.5392 40.5348 70.5392ZM47.8216 66.1152C48.4338 66.1152 48.949 66.1824 49.3672 66.3168C49.7928 66.4437 50.1362 66.6603 50.3975 66.9664C50.6589 67.2725 50.8493 67.6832 50.9687 68.1984C51.0882 68.7136 51.148 69.3595 51.148 70.136C51.148 70.9125 51.0882 71.5584 50.9687 72.0736C50.8493 72.5888 50.6589 72.9995 50.3975 73.3056C50.1362 73.6117 49.7928 73.8283 49.3672 73.9552C48.949 74.0821 48.4338 74.1456 47.8216 74.1456C47.2093 74.1456 46.6904 74.0821 46.2648 73.9552C45.8392 73.8283 45.4957 73.6117 45.2344 73.3056C44.973 72.9995 44.7826 72.5888 44.6632 72.0736C44.5512 71.5584 44.4952 70.9125 44.4952 70.136C44.4952 69.3595 44.5512 68.7136 44.6632 68.1984C44.7826 67.6832 44.973 67.2725 45.2344 66.9664C45.4957 66.6603 45.8392 66.4437 46.2648 66.3168C46.6904 66.1824 47.2093 66.1152 47.8216 66.1152ZM47.8216 67.4592C47.4258 67.4592 47.116 67.5376 46.892 67.6944C46.6754 67.8512 46.5186 68.1237 46.4216 68.512C46.332 68.9003 46.2872 69.4416 46.2872 70.136C46.2872 70.8304 46.332 71.3717 46.4216 71.76C46.5186 72.1483 46.6754 72.4208 46.892 72.5776C47.116 72.7269 47.4258 72.8016 47.8216 72.8016C48.2098 72.8016 48.516 72.7269 48.74 72.5776C48.964 72.4208 49.1208 72.1483 49.2104 71.76C49.3 71.3717 49.3448 70.8304 49.3448 70.136C49.3448 69.4416 49.3 68.9003 49.2104 68.512C49.1208 68.1237 48.964 67.8512 48.74 67.6944C48.516 67.5376 48.2098 67.4592 47.8216 67.4592ZM59.4473 72.8016V75.6912H58.2265L58.1033 74H52.9625L52.8393 75.6912H51.6185V72.8016H52.4361C52.7497 72.0101 52.9812 71.2 53.1305 70.3712C53.2799 69.5349 53.3881 68.6949 53.4553 67.8512C53.4852 67.3808 53.6532 67 53.9593 66.7088C54.2729 66.4176 54.6836 66.272 55.1913 66.272H58.4393V72.8016H59.4473ZM55.0457 68.1312C54.986 68.8405 54.9151 69.4677 54.8329 70.0128C54.7508 70.5579 54.6425 71.0544 54.5081 71.5024C54.3812 71.9504 54.2169 72.3835 54.0153 72.8016H56.7369V67.4704H55.7065C55.49 67.4704 55.3295 67.5227 55.2249 67.6272C55.1204 67.7317 55.0607 67.8997 55.0457 68.1312ZM66.8761 66.272V74H65.2409V69.408C65.2409 69.2363 65.2483 69.0645 65.2633 68.8928C65.2782 68.7136 65.3006 68.5381 65.3305 68.3664H65.2633C65.1438 68.7248 64.9982 69.0608 64.8265 69.3744L62.1721 74H60.5033V66.272H62.1385V70.7744C62.1385 70.9461 62.1273 71.1253 62.1049 71.312C62.0899 71.4987 62.0713 71.6816 62.0489 71.8608H62.1049C62.2318 71.5099 62.3886 71.1701 62.5753 70.8416L65.2073 66.272H66.8761ZM74.2333 66.272V67.616H71.9037V74H70.2013V67.616H67.8717V66.272H74.2333ZM76.8043 66.2384C77.4091 66.2384 78.0363 66.2459 78.6859 66.2608C79.3355 66.2683 79.9291 66.2981 80.4667 66.3504L80.3883 67.5936H77.4203C77.047 67.5936 76.8603 67.784 76.8603 68.1648V69.3744H79.9627V70.584H76.8603V72.1072C76.8603 72.488 77.047 72.6784 77.4203 72.6784H80.3883L80.4667 73.9216C79.9291 73.9739 79.3355 74.0037 78.6859 74.0112C78.0363 74.0187 77.4091 74.0224 76.8043 74.0224C76.3041 74.0224 75.9009 73.8843 75.5947 73.608C75.2961 73.3243 75.1467 72.9472 75.1467 72.4768V67.7952C75.1467 67.3248 75.2998 66.9477 75.6059 66.664C75.9121 66.3803 76.3115 66.2384 76.8043 66.2384ZM87.7255 66.272V74H86.0119V67.4704H85.0039C84.5634 67.4704 84.3282 67.6869 84.2983 68.12C84.2087 69.1056 84.1191 69.9381 84.0295 70.6176C83.9474 71.2971 83.813 71.8757 83.6263 72.3536C83.3874 73.0331 83.0476 73.4997 82.6071 73.7536C82.174 74.0075 81.6626 74.1008 81.0727 74.0336L80.9383 72.712C81.1847 72.6597 81.4012 72.5813 81.5879 72.4768C81.782 72.3648 81.9351 72.1707 82.0471 71.8944C82.1516 71.6256 82.2412 71.3232 82.3159 70.9872C82.3906 70.6512 82.454 70.2405 82.5063 69.7552C82.5586 69.2624 82.6108 68.6576 82.6631 67.9408C82.7452 66.8283 83.3426 66.272 84.4551 66.272H87.7255ZM92.1908 69.1504C92.9001 69.1504 93.4601 69.2288 93.8708 69.3856C94.2815 69.5349 94.5764 69.7925 94.7556 70.1584C94.9348 70.5168 95.0244 71.0059 95.0244 71.6256C95.0244 72.2677 94.9348 72.768 94.7556 73.1264C94.5839 73.4848 94.3113 73.7349 93.938 73.8768C93.5647 74.0187 93.0793 74.0896 92.482 74.0896C92.0041 74.0896 91.5897 74.0859 91.2388 74.0784C90.8953 74.0784 90.5743 74.0709 90.2756 74.056C89.9844 74.0411 89.682 74.0224 89.3684 74H89.3236V66.272H91.0372V69.1504H92.1908ZM92.1908 70.304H91.0372V72.8128C91.3807 72.8128 91.7652 72.8128 92.1908 72.8128C92.4895 72.8128 92.7209 72.7829 92.8852 72.7232C93.0495 72.656 93.1615 72.5328 93.2212 72.3536C93.2809 72.1744 93.3108 71.9168 93.3108 71.5808C93.3108 71.2597 93.2809 71.0059 93.2212 70.8192C93.1615 70.6325 93.0495 70.5019 92.8852 70.4272C92.7284 70.3451 92.4969 70.304 92.1908 70.304ZM101.622 66.1376C101.98 66.1376 102.29 66.1488 102.551 66.1712C102.813 66.1861 103.052 66.2123 103.268 66.2496C103.485 66.2869 103.709 66.3355 103.94 66.3952L103.806 67.6608C103.559 67.6459 103.332 67.6347 103.123 67.6272C102.914 67.6197 102.69 67.6123 102.451 67.6048C102.219 67.5973 101.943 67.5936 101.622 67.5936C101.241 67.5936 100.942 67.672 100.726 67.8288C100.509 67.9781 100.356 68.2357 100.267 68.6016C100.184 68.9675 100.143 69.4789 100.143 70.136C100.143 70.7856 100.184 71.2971 100.267 71.6704C100.356 72.0363 100.509 72.2939 100.726 72.4432C100.942 72.5925 101.241 72.6672 101.622 72.6672C102.137 72.6672 102.57 72.6635 102.921 72.656C103.272 72.6411 103.619 72.6112 103.963 72.5664L104.108 73.8208C103.75 73.9328 103.384 74.0112 103.011 74.056C102.637 74.1083 102.174 74.1344 101.622 74.1344C100.823 74.1344 100.181 74.0075 99.6954 73.7536C99.2175 73.4923 98.8741 73.0704 98.665 72.488C98.4559 71.9056 98.3514 71.1216 98.3514 70.136C98.3514 69.1504 98.4559 68.3664 98.665 67.784C98.8741 67.2016 99.2175 66.7835 99.6954 66.5296C100.181 66.2683 100.823 66.1376 101.622 66.1376ZM108.153 66.1152C108.765 66.1152 109.28 66.1824 109.698 66.3168C110.124 66.4437 110.467 66.6603 110.729 66.9664C110.99 67.2725 111.181 67.6832 111.3 68.1984C111.419 68.7136 111.479 69.3595 111.479 70.136C111.479 70.9125 111.419 71.5584 111.3 72.0736C111.181 72.5888 110.99 72.9995 110.729 73.3056C110.467 73.6117 110.124 73.8283 109.698 73.9552C109.28 74.0821 108.765 74.1456 108.153 74.1456C107.541 74.1456 107.022 74.0821 106.596 73.9552C106.17 73.8283 105.827 73.6117 105.566 73.3056C105.304 72.9995 105.114 72.5888 104.994 72.0736C104.882 71.5584 104.826 70.9125 104.826 70.136C104.826 69.3595 104.882 68.7136 104.994 68.1984C105.114 67.6832 105.304 67.2725 105.566 66.9664C105.827 66.6603 106.17 66.4437 106.596 66.3168C107.022 66.1824 107.541 66.1152 108.153 66.1152ZM108.153 67.4592C107.757 67.4592 107.447 67.5376 107.223 67.6944C107.007 67.8512 106.85 68.1237 106.753 68.512C106.663 68.9003 106.618 69.4416 106.618 70.136C106.618 70.8304 106.663 71.3717 106.753 71.76C106.85 72.1483 107.007 72.4208 107.223 72.5776C107.447 72.7269 107.757 72.8016 108.153 72.8016C108.541 72.8016 108.847 72.7269 109.071 72.5776C109.295 72.4208 109.452 72.1483 109.542 71.76C109.631 71.3717 109.676 70.8304 109.676 70.136C109.676 69.4416 109.631 68.9003 109.542 68.512C109.452 68.1237 109.295 67.8512 109.071 67.6944C108.847 67.5376 108.541 67.4592 108.153 67.4592ZM115.741 66.1824C116.413 66.1824 116.946 66.2421 117.342 66.3616C117.745 66.4736 118.037 66.6752 118.216 66.9664C118.395 67.2576 118.485 67.6683 118.485 68.1984C118.485 68.7509 118.376 69.1728 118.16 69.464C117.951 69.7477 117.603 69.912 117.118 69.9568V70.0128C117.715 70.0651 118.134 70.2667 118.373 70.6176C118.611 70.9685 118.731 71.4539 118.731 72.0736C118.731 72.6037 118.638 73.0144 118.451 73.3056C118.272 73.5968 117.988 73.8021 117.6 73.9216C117.211 74.0336 116.711 74.0896 116.099 74.0896C115.599 74.0896 115.162 74.0859 114.789 74.0784C114.423 74.0784 114.083 74.0709 113.769 74.056C113.463 74.0411 113.146 74.0224 112.817 74V66.272C113.109 66.2421 113.392 66.2235 113.669 66.216C113.952 66.2011 114.258 66.1936 114.587 66.1936C114.915 66.1861 115.3 66.1824 115.741 66.1824ZM115.651 67.4256C115.427 67.4256 115.218 67.4256 115.024 67.4256C114.83 67.4256 114.65 67.4256 114.486 67.4256V69.4528H115.741C116.159 69.4528 116.446 69.3856 116.603 69.2512C116.767 69.1168 116.849 68.8405 116.849 68.4224C116.849 68.0117 116.763 67.7429 116.592 67.616C116.42 67.4891 116.106 67.4256 115.651 67.4256ZM115.763 70.5392H114.486V72.8464C114.874 72.8464 115.311 72.8464 115.797 72.8464C116.11 72.8464 116.357 72.8165 116.536 72.7568C116.715 72.6971 116.838 72.5888 116.905 72.432C116.98 72.2752 117.017 72.0437 117.017 71.7376C117.017 71.424 116.98 71.1813 116.905 71.0096C116.831 70.8379 116.7 70.7184 116.513 70.6512C116.334 70.5765 116.084 70.5392 115.763 70.5392ZM122.971 66.16C123.688 66.16 124.252 66.2347 124.662 66.384C125.073 66.5333 125.364 66.7909 125.536 67.1568C125.715 67.5227 125.805 68.0341 125.805 68.6912C125.805 69.3483 125.719 69.8597 125.547 70.2256C125.383 70.5915 125.107 70.8453 124.718 70.9872C124.338 71.1291 123.826 71.2037 123.184 71.2112C122.93 71.2037 122.676 71.1925 122.422 71.1776C122.176 71.1627 121.937 71.144 121.706 71.1216V74H120.003V66.272C120.309 66.2421 120.601 66.2197 120.877 66.2048C121.153 66.1899 121.452 66.1787 121.773 66.1712C122.101 66.1637 122.501 66.16 122.971 66.16ZM122.926 67.448C122.702 67.448 122.486 67.448 122.277 67.448C122.075 67.448 121.885 67.448 121.706 67.448V69.9232H122.926C123.374 69.9232 123.681 69.8411 123.845 69.6768C124.009 69.5125 124.091 69.184 124.091 68.6912C124.091 68.1984 124.009 67.8699 123.845 67.7056C123.681 67.5339 123.374 67.448 122.926 67.448ZM128.528 66.2384C129.133 66.2384 129.76 66.2459 130.409 66.2608C131.059 66.2683 131.653 66.2981 132.19 66.3504L132.112 67.5936H129.144C128.77 67.5936 128.584 67.784 128.584 68.1648V69.3744H131.686V70.584H128.584V72.1072C128.584 72.488 128.77 72.6784 129.144 72.6784H132.112L132.19 73.9216C131.653 73.9739 131.059 74.0037 130.409 74.0112C129.76 74.0187 129.133 74.0224 128.528 74.0224C128.028 74.0224 127.624 73.8843 127.318 73.608C127.02 73.3243 126.87 72.9472 126.87 72.4768V67.7952C126.87 67.3248 127.023 66.9477 127.329 66.664C127.636 66.3803 128.035 66.2384 128.528 66.2384ZM141.342 66.272C141.745 66.272 141.954 66.4811 141.969 66.8992L142.26 74H140.681L140.423 67.5824H140.222L138.979 72.4096C138.904 72.768 138.68 72.9472 138.307 72.9472H137.231C136.851 72.9472 136.623 72.768 136.548 72.4096L135.294 67.5824H135.103L134.868 74H133.289L133.569 66.8992C133.584 66.4811 133.797 66.272 134.207 66.272H135.809C136.175 66.272 136.399 66.4512 136.481 66.8096L137.478 70.7072C137.523 70.8864 137.56 71.0693 137.59 71.256C137.62 71.4352 137.653 71.6181 137.691 71.8048H137.836C137.873 71.6181 137.907 71.4352 137.937 71.256C137.967 71.0693 138.004 70.8827 138.049 70.696L139.035 66.8096C139.109 66.4512 139.337 66.272 139.718 66.272H141.342ZM145.295 66.2384C145.9 66.2384 146.527 66.2459 147.177 66.2608C147.826 66.2683 148.42 66.2981 148.957 66.3504L148.879 67.5936H145.911C145.538 67.5936 145.351 67.784 145.351 68.1648V69.3744H148.453V70.584H145.351V72.1072C145.351 72.488 145.538 72.6784 145.911 72.6784H148.879L148.957 73.9216C148.42 73.9739 147.826 74.0037 147.177 74.0112C146.527 74.0187 145.9 74.0224 145.295 74.0224C144.795 74.0224 144.392 73.8843 144.085 73.608C143.787 73.3243 143.637 72.9472 143.637 72.4768V67.7952C143.637 67.3248 143.79 66.9477 144.097 66.664C144.403 66.3803 144.802 66.2384 145.295 66.2384ZM151.915 66.272V69.24H154.671V66.272H156.373V74H154.671V70.5168H151.915V74H150.202V66.272H151.915ZM159.703 66.272V69.24H162.458V66.272H164.16V74H162.458V70.5168H159.703V74H157.989V66.272H159.703ZM168.622 69.1504C169.331 69.1504 169.887 69.2288 170.29 69.3856C170.701 69.5349 170.992 69.7925 171.164 70.1584C171.343 70.5168 171.433 71.0059 171.433 71.6256C171.433 72.2677 171.347 72.768 171.175 73.1264C171.003 73.4848 170.731 73.7349 170.358 73.8768C169.984 74.0187 169.503 74.0896 168.913 74.0896C168.442 74.0896 168.032 74.0859 167.681 74.0784C167.337 74.0784 167.02 74.0709 166.729 74.056C166.438 74.0411 166.135 74.0224 165.822 74H165.777V66.272H167.49V69.1504H168.622ZM174.255 66.272V74H172.542V66.272H174.255ZM168.622 70.304H167.49V72.8128C167.834 72.8128 168.211 72.8128 168.622 72.8128C168.92 72.8128 169.148 72.7829 169.305 72.7232C169.462 72.656 169.57 72.5328 169.63 72.3536C169.689 72.1744 169.719 71.9168 169.719 71.5808C169.719 71.2597 169.689 71.0059 169.63 70.8192C169.577 70.6325 169.473 70.5019 169.316 70.4272C169.159 70.3451 168.928 70.304 168.622 70.304ZM177.07 66.272L178.594 69.4864H178.762L180.296 66.272H182.021L180.128 70.024L182.178 74H180.43L178.75 70.5392H178.605L176.925 74H175.189L177.227 70.024L175.334 66.272H177.07ZM188.442 66.1824C189.114 66.1824 189.648 66.2421 190.044 66.3616C190.447 66.4736 190.738 66.6752 190.917 66.9664C191.096 67.2576 191.186 67.6683 191.186 68.1984C191.186 68.7509 191.078 69.1728 190.861 69.464C190.652 69.7477 190.305 69.912 189.82 69.9568V70.0128C190.417 70.0651 190.835 70.2667 191.074 70.6176C191.313 70.9685 191.432 71.4539 191.432 72.0736C191.432 72.6037 191.339 73.0144 191.152 73.3056C190.973 73.5968 190.69 73.8021 190.301 73.9216C189.913 74.0336 189.413 74.0896 188.8 74.0896C188.3 74.0896 187.863 74.0859 187.49 74.0784C187.124 74.0784 186.784 74.0709 186.471 74.056C186.165 74.0411 185.847 74.0224 185.519 74V66.272C185.81 66.2421 186.094 66.2235 186.37 66.216C186.654 66.2011 186.96 66.1936 187.288 66.1936C187.617 66.1861 188.002 66.1824 188.442 66.1824ZM188.352 67.4256C188.128 67.4256 187.919 67.4256 187.725 67.4256C187.531 67.4256 187.352 67.4256 187.188 67.4256V69.4528H188.442C188.86 69.4528 189.148 69.3856 189.304 69.2512C189.469 69.1168 189.551 68.8405 189.551 68.4224C189.551 68.0117 189.465 67.7429 189.293 67.616C189.122 67.4891 188.808 67.4256 188.352 67.4256ZM188.464 70.5392H187.188V72.8464C187.576 72.8464 188.013 72.8464 188.498 72.8464C188.812 72.8464 189.058 72.8165 189.237 72.7568C189.416 72.6971 189.54 72.5888 189.607 72.432C189.682 72.2752 189.719 72.0437 189.719 71.7376C189.719 71.424 189.682 71.1813 189.607 71.0096C189.532 70.8379 189.402 70.7184 189.215 70.6512C189.036 70.5765 188.786 70.5392 188.464 70.5392ZM193.903 66.272L195.426 69.4864H195.594L197.129 66.272H198.854L196.961 70.024L199.01 74H197.263L195.583 70.5392H195.438L193.758 74H192.022L194.06 70.024L192.167 66.272H193.903ZM202.762 66.1152C203.374 66.1152 203.89 66.1824 204.308 66.3168C204.733 66.4437 205.077 66.6603 205.338 66.9664C205.6 67.2725 205.79 67.6832 205.909 68.1984C206.029 68.7136 206.089 69.3595 206.089 70.136C206.089 70.9125 206.029 71.5584 205.909 72.0736C205.79 72.5888 205.6 72.9995 205.338 73.3056C205.077 73.6117 204.733 73.8283 204.308 73.9552C203.89 74.0821 203.374 74.1456 202.762 74.1456C202.15 74.1456 201.631 74.0821 201.205 73.9552C200.78 73.8283 200.436 73.6117 200.175 73.3056C199.914 72.9995 199.723 72.5888 199.604 72.0736C199.492 71.5584 199.436 70.9125 199.436 70.136C199.436 69.3595 199.492 68.7136 199.604 68.1984C199.723 67.6832 199.914 67.2725 200.175 66.9664C200.436 66.6603 200.78 66.4437 201.205 66.3168C201.631 66.1824 202.15 66.1152 202.762 66.1152ZM202.762 67.4592C202.366 67.4592 202.057 67.5376 201.833 67.6944C201.616 67.8512 201.459 68.1237 201.362 68.512C201.273 68.9003 201.228 69.4416 201.228 70.136C201.228 70.8304 201.273 71.3717 201.362 71.76C201.459 72.1483 201.616 72.4208 201.833 72.5776C202.057 72.7269 202.366 72.8016 202.762 72.8016C203.15 72.8016 203.457 72.7269 203.681 72.5776C203.905 72.4208 204.061 72.1483 204.151 71.76C204.241 71.3717 204.285 70.8304 204.285 70.136C204.285 69.4416 204.241 68.9003 204.151 68.512C204.061 68.1237 203.905 67.8512 203.681 67.6944C203.457 67.5376 203.15 67.4592 202.762 67.4592ZM214.388 72.8016V75.6912H213.167L213.044 74H207.903L207.78 75.6912H206.559V72.8016H207.377C207.69 72.0101 207.922 71.2 208.071 70.3712C208.22 69.5349 208.329 68.6949 208.396 67.8512C208.426 67.3808 208.594 67 208.9 66.7088C209.214 66.4176 209.624 66.272 210.132 66.272H213.38V72.8016H214.388ZM209.986 68.1312C209.927 68.8405 209.856 69.4677 209.774 70.0128C209.691 70.5579 209.583 71.0544 209.449 71.5024C209.322 71.9504 209.158 72.3835 208.956 72.8016H211.678V67.4704H210.647C210.431 67.4704 210.27 67.5227 210.166 67.6272C210.061 67.7317 210.001 67.8997 209.986 68.1312ZM217.157 66.272V69.24H219.913V66.272H221.615V74H219.913V70.5168H217.157V74H215.444V66.272H217.157ZM226.076 69.1504C226.786 69.1504 227.342 69.2288 227.745 69.3856C228.156 69.5349 228.447 69.7925 228.619 70.1584C228.798 70.5168 228.887 71.0059 228.887 71.6256C228.887 72.2677 228.802 72.768 228.63 73.1264C228.458 73.4848 228.186 73.7349 227.812 73.8768C227.439 74.0187 226.957 74.0896 226.367 74.0896C225.897 74.0896 225.486 74.0859 225.135 74.0784C224.792 74.0784 224.475 74.0709 224.183 74.056C223.892 74.0411 223.59 74.0224 223.276 74H223.231V66.272H224.945V69.1504H226.076ZM231.71 66.272V74H229.996V66.272H231.71ZM226.076 70.304H224.945V72.8128C225.288 72.8128 225.666 72.8128 226.076 72.8128C226.375 72.8128 226.603 72.7829 226.759 72.7232C226.916 72.656 227.024 72.5328 227.084 72.3536C227.144 72.1744 227.174 71.9168 227.174 71.5808C227.174 71.2597 227.144 71.0059 227.084 70.8192C227.032 70.6325 226.927 70.5019 226.771 70.4272C226.614 70.3451 226.382 70.304 226.076 70.304ZM234.525 66.272L236.048 69.4864H236.216L237.751 66.272H239.476L237.583 70.024L239.632 74H237.885L236.205 70.5392H236.06L234.38 74H232.644L234.682 70.024L232.789 66.272H234.525ZM250.186 72.8016V75.6912H248.966L248.842 74H243.702L243.578 75.6912H242.358V72.8016H243.175C243.489 72.0101 243.72 71.2 243.87 70.3712C244.019 69.5349 244.127 68.6949 244.194 67.8512C244.224 67.3808 244.392 67 244.698 66.7088C245.012 66.4176 245.423 66.272 245.93 66.272H249.178V72.8016H250.186ZM245.785 68.1312C245.725 68.8405 245.654 69.4677 245.572 70.0128C245.49 70.5579 245.382 71.0544 245.247 71.5024C245.12 71.9504 244.956 72.3835 244.754 72.8016H247.476V67.4704H246.446C246.229 67.4704 246.069 67.5227 245.964 67.6272C245.859 67.7317 245.8 67.8997 245.785 68.1312ZM254.166 66.1824C254.838 66.1824 255.371 66.2421 255.767 66.3616C256.17 66.4736 256.462 66.6752 256.641 66.9664C256.82 67.2576 256.91 67.6683 256.91 68.1984C256.91 68.7509 256.801 69.1728 256.585 69.464C256.376 69.7477 256.028 69.912 255.543 69.9568V70.0128C256.14 70.0651 256.559 70.2667 256.798 70.6176C257.036 70.9685 257.156 71.4539 257.156 72.0736C257.156 72.6037 257.063 73.0144 256.876 73.3056C256.697 73.5968 256.413 73.8021 256.025 73.9216C255.636 74.0336 255.136 74.0896 254.524 74.0896C254.024 74.0896 253.587 74.0859 253.214 74.0784C252.848 74.0784 252.508 74.0709 252.194 74.056C251.888 74.0411 251.571 74.0224 251.242 74V66.272C251.534 66.2421 251.817 66.2235 252.094 66.216C252.377 66.2011 252.683 66.1936 253.012 66.1936C253.34 66.1861 253.725 66.1824 254.166 66.1824ZM254.076 67.4256C253.852 67.4256 253.643 67.4256 253.449 67.4256C253.255 67.4256 253.075 67.4256 252.911 67.4256V69.4528H254.166C254.584 69.4528 254.871 69.3856 255.028 69.2512C255.192 69.1168 255.274 68.8405 255.274 68.4224C255.274 68.0117 255.188 67.7429 255.017 67.616C254.845 67.4891 254.531 67.4256 254.076 67.4256ZM254.188 70.5392H252.911V72.8464C253.299 72.8464 253.736 72.8464 254.222 72.8464C254.535 72.8464 254.782 72.8165 254.961 72.7568C255.14 72.6971 255.263 72.5888 255.33 72.432C255.405 72.2752 255.442 72.0437 255.442 71.7376C255.442 71.424 255.405 71.1813 255.33 71.0096C255.256 70.8379 255.125 70.7184 254.938 70.6512C254.759 70.5765 254.509 70.5392 254.188 70.5392ZM260.007 66.2384C260.612 66.2384 261.239 66.2459 261.889 66.2608C262.539 66.2683 263.132 66.2981 263.67 66.3504L263.591 67.5936H260.623C260.25 67.5936 260.063 67.784 260.063 68.1648V69.3744H263.166V70.584H260.063V72.1072C260.063 72.488 260.25 72.6784 260.623 72.6784H263.591L263.67 73.9216C263.132 73.9739 262.539 74.0037 261.889 74.0112C261.239 74.0187 260.612 74.0224 260.007 74.0224C259.507 74.0224 259.104 73.8843 258.798 73.608C258.499 73.3243 258.35 72.9472 258.35 72.4768V67.7952C258.35 67.3248 258.503 66.9477 258.809 66.664C259.115 66.3803 259.515 66.2384 260.007 66.2384ZM267.882 66.16C268.599 66.16 269.163 66.2347 269.573 66.384C269.984 66.5333 270.275 66.7909 270.447 67.1568C270.626 67.5227 270.716 68.0341 270.716 68.6912C270.716 69.3483 270.63 69.8597 270.458 70.2256C270.294 70.5915 270.018 70.8453 269.629 70.9872C269.249 71.1291 268.737 71.2037 268.095 71.2112C267.841 71.2037 267.587 71.1925 267.333 71.1776C267.087 71.1627 266.848 71.144 266.617 71.1216V74H264.914V66.272C265.22 66.2421 265.512 66.2197 265.788 66.2048C266.064 66.1899 266.363 66.1787 266.684 66.1712C267.012 66.1637 267.412 66.16 267.882 66.16ZM267.837 67.448C267.613 67.448 267.397 67.448 267.188 67.448C266.986 67.448 266.796 67.448 266.617 67.448V69.9232H267.837C268.285 69.9232 268.592 69.8411 268.756 69.6768C268.92 69.5125 269.002 69.184 269.002 68.6912C269.002 68.1984 268.92 67.8699 268.756 67.7056C268.592 67.5339 268.285 67.448 267.837 67.448ZM273.439 66.2384C274.044 66.2384 274.671 66.2459 275.32 66.2608C275.97 66.2683 276.564 66.2981 277.101 66.3504L277.023 67.5936H274.055C273.681 67.5936 273.495 67.784 273.495 68.1648V69.3744H276.597V70.584H273.495V72.1072C273.495 72.488 273.681 72.6784 274.055 72.6784H277.023L277.101 73.9216C276.564 73.9739 275.97 74.0037 275.32 74.0112C274.671 74.0187 274.044 74.0224 273.439 74.0224C272.938 74.0224 272.535 73.8843 272.229 73.608C271.93 73.3243 271.781 72.9472 271.781 72.4768V67.7952C271.781 67.3248 271.934 66.9477 272.24 66.664C272.546 66.3803 272.946 66.2384 273.439 66.2384ZM284.718 66.272V74H283.083V69.408C283.083 69.2363 283.091 69.0645 283.105 68.8928C283.12 68.7136 283.143 68.5381 283.173 68.3664H283.105C282.986 68.7248 282.84 69.0608 282.669 69.3744L280.014 74H278.345V66.272H279.981V70.7744C279.981 70.9461 279.969 71.1253 279.947 71.312C279.932 71.4987 279.913 71.6816 279.891 71.8608H279.947C280.074 71.5099 280.231 71.1701 280.417 70.8416L283.049 66.272H284.718ZM282.366 63.9536H283.441C283.479 64.2597 283.427 64.5472 283.285 64.816C283.15 65.0773 282.937 65.2901 282.646 65.4544C282.363 65.6112 282.019 65.6896 281.616 65.6896C281.205 65.6896 280.854 65.6112 280.563 65.4544C280.272 65.2901 280.055 65.0773 279.913 64.816C279.772 64.5472 279.723 64.2597 279.768 63.9536H280.843C280.821 64.2896 280.877 64.5285 281.011 64.6704C281.145 64.8123 281.347 64.8832 281.616 64.8832C281.87 64.8832 282.064 64.8123 282.198 64.6704C282.333 64.5285 282.389 64.2896 282.366 63.9536Z" fill="black"/>
<path d="M229.79 50.502V57H200.777V50.502L219.701 24.111H201.233V17.67H229.334V24.111L210.353 50.502H229.79ZM251.332 17.1C255.474 17.1 258.761 17.708 261.193 18.924C263.663 20.14 265.449 22.211 266.551 25.137C267.653 28.063 268.204 32.129 268.204 37.335C268.204 42.541 267.653 46.607 266.551 49.533C265.449 52.459 263.663 54.53 261.193 55.746C258.761 56.924 255.474 57.513 251.332 57.513C248.33 57.513 245.575 57.456 243.067 57.342C240.559 57.266 238.184 57.152 235.942 57V17.67C238.222 17.518 240.597 17.385 243.067 17.271C245.537 17.157 248.292 17.1 251.332 17.1ZM251.332 23.769C250.078 23.769 248.881 23.769 247.741 23.769C246.639 23.769 245.594 23.788 244.606 23.826V50.787C246.658 50.825 248.9 50.844 251.332 50.844C253.308 50.844 254.847 50.464 255.949 49.704C257.051 48.906 257.83 47.519 258.286 45.543C258.78 43.567 259.027 40.831 259.027 37.335C259.027 33.839 258.78 31.103 258.286 29.127C257.83 27.151 257.051 25.764 255.949 24.966C254.847 24.168 253.308 23.769 251.332 23.769ZM283.515 17.67V57H274.851V17.67H283.515Z" fill="#B00000"/>
</svg>
